<?xml version="1.0" standalone="no"?>
<!DOCTYPE svg PUBLIC "-//W3C//DTD SVG 1.1//EN" "http://www.w3.org/Graphics/SVG/1.1/DTD/svg11.dtd" >
<svg xmlns="http://www.w3.org/2000/svg">
<metadata>Generated by IcoMoon</metadata>
<defs>
<font id="icomoon" horiz-adv-x="1024">
<font-face units-per-em="1024" ascent="960" descent="-64" />
<missing-glyph horiz-adv-x="1024" />
<glyph unicode="&#x20;" horiz-adv-x="512" d="" />
<glyph unicode="&#xe900;" glyph-name="fb" d="M953.344 958.381c15.384 0 28.505-5.453 39.436-16.384 10.883-11.002 16.455-24.1 16.455-39.436v-897.596c0-15.36-5.572-28.505-16.455-39.412-10.931-10.978-24.052-16.455-39.436-16.455h-256.881v391.001h130.739l19.766 152.457h-150.504v97.232c0 24.552 5.168 42.937 15.384 55.177 10.335 12.264 30.363 18.408 60.13 18.408l80.134 0.619v136.025c-27.624 3.977-66.56 5.93-116.927 5.93-59.583 0-107.163-17.527-142.979-52.557-35.626-35.078-53.439-84.587-53.439-148.504v-112.354h-131.453v-152.457h131.453v-391.001h-482.947c-15.384 0-28.505 5.477-39.436 16.455-10.931 10.907-16.455 24.076-16.455 39.412v897.596c0 15.36 5.525 28.434 16.455 39.436 10.931 10.931 24.052 16.384 39.436 16.384l897.524 0.024z" />
<glyph unicode="&#xe901;" glyph-name="hamburger" d="M128 640h768c35.328 0 64 28.672 64 64s-28.672 64-64 64h-768c-35.328 0-64-28.672-64-64s28.672-64 64-64zM896 512h-768c-35.328 0-64-28.672-64-64s28.672-64 64-64h768c35.328 0 64 28.672 64 64s-28.672 64-64 64zM896 256h-768c-35.328 0-64-28.672-64-64s28.672-64 64-64h768c35.328 0 64 28.672 64 64s-28.672 64-64 64z" />
<glyph unicode="&#xe902;" glyph-name="insta" d="M1002.519 454.028c0-98.281-1.071-166.26-3.212-204.055-4.282-89.228-30.883-158.324-79.825-207.267-48.943-48.896-117.993-75.45-207.244-79.802-37.795-2.141-105.775-3.235-204.079-3.235-98.281 0-166.26 1.094-204.032 3.235-89.297 4.352-158.348 30.906-207.267 79.802-48.896 48.966-75.52 118.039-79.825 207.267-2.118 37.795-3.212 105.775-3.212 204.055 0 98.304 1.094 166.307 3.212 204.055 4.305 89.274 30.929 158.371 79.825 207.267 48.943 48.943 117.969 75.543 207.267 79.825 37.772 2.118 105.751 3.212 204.032 3.212 98.304 0 166.284-1.071 204.079-3.212 89.251-4.282 158.324-30.883 207.244-79.825 48.943-48.896 75.543-117.969 79.825-207.267 2.141-37.772 3.212-105.775 3.212-204.055zM557.428 859.881c-29.812-0.233-46.243-0.326-49.245-0.326-2.979 0-19.409 0.093-49.222 0.326s-52.48 0.233-67.91 0c-15.43-0.233-36.166-0.861-62.115-1.932-25.972-1.047-48.035-3.212-66.304-6.47-18.246-3.212-33.559-7.168-46.033-11.892-21.457-8.564-40.308-20.992-56.669-37.329-16.244-16.291-28.695-35.212-37.329-56.669-4.678-12.451-8.681-27.764-11.916-46.033-3.212-18.246-5.329-40.308-6.4-66.281s-1.745-46.639-1.978-62.115c-0.163-15.453-0.163-38.097 0-67.887 0.233-29.836 0.349-46.22 0.349-49.268 0-2.979-0.116-19.433-0.349-49.222-0.163-29.859-0.163-52.433 0-67.933 0.233-15.43 0.908-36.166 1.978-62.115s3.212-48.035 6.4-66.281c3.235-18.246 7.238-33.559 11.916-46.033 8.611-21.457 21.062-40.332 37.329-56.669 16.337-16.268 35.212-28.719 56.669-37.306 12.451-4.724 27.764-8.727 46.033-11.939 18.246-3.235 40.308-5.353 66.304-6.423 25.949-1.047 46.685-1.722 62.115-1.908 15.43-0.233 38.097-0.233 67.91 0 29.812 0.186 46.243 0.279 49.222 0.279 3.002 0 19.433-0.093 49.245-0.279 29.836-0.233 52.503-0.233 67.887 0 15.43 0.186 36.189 0.861 62.138 1.908 25.949 1.071 48.035 3.212 66.304 6.423s33.559 7.215 46.033 11.939c21.481 8.564 40.285 21.015 56.646 37.306 16.291 16.314 28.719 35.212 37.353 56.669 4.701 12.451 8.657 27.764 11.869 46.033 3.212 18.223 5.353 40.308 6.47 66.281 1.094 25.949 1.699 46.685 1.932 62.115 0.233 15.5 0.233 38.074 0 67.933-0.233 29.789-0.349 46.243-0.349 49.222 0 3.049 0.116 19.433 0.349 49.268 0.233 29.789 0.233 52.433 0 67.887-0.233 15.476-0.838 36.143-1.932 62.115-1.117 25.972-3.281 48.035-6.47 66.281-3.212 18.246-7.168 33.559-11.869 46.033-8.634 21.457-21.062 40.378-37.353 56.669-16.337 16.337-35.165 28.765-56.646 37.329-12.451 4.748-27.741 8.681-46.033 11.892-18.246 3.258-40.332 5.399-66.304 6.47-25.949 1.071-46.708 1.699-62.138 1.932-15.383 0.233-38.051 0.233-67.887 0zM687.802 633.647c49.338-49.338 74.031-109.196 74.031-179.619 0-70.353-24.692-130.211-74.031-179.572-49.385-49.385-109.196-74.031-179.619-74.031-70.307 0-130.211 24.646-179.526 74.031-49.408 49.361-74.1 109.196-74.1 179.572 0 70.4 24.692 130.281 74.1 179.619 49.315 49.315 109.196 74.007 179.526 74.007 70.4-0.023 130.234-24.692 179.619-74.007zM624.71 337.548c32.163 32.163 48.268 71.028 48.268 116.48 0 45.498-16.105 84.317-48.268 116.527-32.209 32.186-71.005 48.268-116.527 48.268-45.498 0-84.317-16.081-116.48-48.268-32.209-32.209-48.291-71.028-48.291-116.527 0-45.452 16.081-84.317 48.291-116.48 32.163-32.233 70.982-48.268 116.48-48.268 45.521 0 84.317 16.035 116.527 48.268zM813.964 759.785c11.543-11.613 17.361-25.553 17.361-41.844 0-16.337-5.818-30.255-17.361-41.844-11.59-11.613-25.577-17.338-41.844-17.338-16.337 0-30.231 5.748-41.844 17.338-11.59 11.613-17.408 25.507-17.408 41.844 0 16.291 5.818 30.231 17.408 41.844 11.613 11.613 25.507 17.361 41.844 17.361 16.268 0 30.255-5.748 41.844-17.361z" />
<glyph unicode="&#xe903;" glyph-name="more" d="M941.104 691.307c45.056-75.657 67.679-158.244 67.679-247.737 0-89.66-22.623-172.223-67.679-247.856-45.127-75.657-106.305-135.525-183.439-179.605-77.252-44.151-161.578-66.274-253.119-66.274-91.422 0-175.795 22.147-253.023 66.274-77.252 44.080-138.431 103.948-183.51 179.605-45.151 75.633-67.608 158.22-67.608 247.856 0 89.517 22.457 172.103 67.608 247.737 45.080 75.609 106.258 135.525 183.51 179.676 77.229 44.056 161.601 66.179 253.023 66.179 91.541 0 175.866-22.147 253.119-66.179 77.133-44.151 138.311-104.067 183.439-179.676zM843.919 443.547c0 11.502-3.977 21.171-11.788 28.863l-297.365 291.173c-7.93 7.763-17.694 11.621-29.577 11.621-11.764 0-21.623-3.858-29.458-11.621l-59.773-58.487c-7.906-7.716-11.836-17.36-11.836-28.91 0-11.597 3.929-21.194 11.836-28.958l124.095-121.499h-329.609c-11.407 0-21.266-4.001-29.458-12.193-8.383-8.144-12.526-17.789-12.526-28.958v-82.23c0-11.169 4.167-20.79 12.526-28.958 8.216-8.144 18.075-12.193 29.458-12.193h329.609l-124.095-121.499c-8.311-8.168-12.526-17.789-12.526-28.958s4.239-20.79 12.526-28.886l59.773-58.511c7.835-7.763 17.694-11.621 29.458-11.621 11.883 0 21.647 3.858 29.577 11.621l297.365 291.149c7.811 7.763 11.788 17.408 11.788 29.053z" />
<glyph unicode="&#xe904;" glyph-name="pint" d="M825.623 936.774c51.177 0 94.813-18.153 131.119-54.481 36.329-36.305 54.481-80.012 54.481-131.119v-618.566c0-51.060-18.153-94.836-54.481-131.142-36.305-36.189-79.942-54.342-131.119-54.342h-467.084c36.468 52.317 59.671 97.396 69.585 135.308 3.863 14.522 15.244 59.392 34.211 134.633 9.030-16.826 24.785-31.139 47.337-43.171 22.551-12.079 46.662-18.083 72.355-18.083 77.824 0 141.312 31.697 190.487 95.092 49.129 63.372 73.705 143.523 73.705 240.593 0 36.119-7.424 71.075-22.528 104.727-15.011 33.745-35.724 63.511-62.138 89.553-26.391 25.926-59.183 46.825-98.327 62.487-39.005 15.686-81.408 23.575-126.86 23.575-44.753 0-86.481-6.097-125.37-18.362-38.912-12.288-71.703-28.625-98.537-49.292-26.833-20.643-49.943-44.195-69.236-70.586-19.433-26.368-33.583-53.9-42.822-82.409-9.286-28.625-13.894-57.065-13.894-85.364 0-43.846 8.448-82.502 25.46-115.991 16.919-33.489 41.961-57.181 75.008-70.935 5.632-2.164 10.682-2.164 15.197 0 4.515 2.141 7.54 6.307 9.239 12.288 4.329 18.921 7.54 32.023 9.705 39.284 2.583 9.844 0.233 18.874-7.121 27.113-21.411 26.577-32.14 58.74-32.14 96.628 0 64.372 22.202 119.482 66.653 165.167 44.404 45.801 102.493 68.701 174.313 68.701 63.884 0 113.897-17.385 149.737-52.247 35.84-34.746 53.76-79.825 53.76-135.284 0-72.169-14.406-133.609-43.357-184.227-28.998-50.781-66.351-76.009-111.872-76.009-25.716 0-46.545 9.216-62.487 27.951-15.872 18.711-20.852 40.937-14.778 66.746 3.398 14.522 9.007 34.42 17.059 59.578 7.843 25.088 14.289 47.034 19.014 65.745 4.655 18.688 7.005 34.676 7.005 47.965 0 20.992-5.655 38.586-17.036 52.457-11.404 14.010-27.601 20.945-48.57 20.945-26.275 0-48.477-12.125-66.746-36.375-18.292-24.227-27.462-54.272-27.462-89.833 0-30.929 5.213-56.948 15.476-77.94l-63.139-266.775c-10.24-42.985-11.753-97.536-4.468-163.607h-117.807c-51.177 0-94.813 18.153-131.119 54.342-36.329 36.305-54.481 80.058-54.481 131.142v618.566c0 51.084 18.153 94.813 54.481 131.119 36.305 36.329 79.942 54.481 131.119 54.481l618.473-0.047z" />
<glyph unicode="&#xe905;" glyph-name="search" d="M1010.595 23.133c0-20.527-7.517-38.33-22.528-53.434-15.081-15.057-32.908-22.528-53.434-22.528-21.411 0-39.284 7.447-53.574 22.528l-203.729 203.148c-70.865-49.129-149.853-73.635-237.033-73.635-56.576 0-110.708 10.985-162.42 33.001-51.712 21.876-96.256 51.619-133.655 89.041-37.423 37.423-67.142 81.943-89.041 133.655-22.016 51.735-33.024 105.891-33.024 162.444 0 56.646 11.008 110.778 33.024 162.467 21.9 51.665 51.619 96.279 89.041 133.679 37.399 37.423 81.943 67.142 133.655 89.041 51.735 22.016 105.868 33.024 162.42 33.024 56.646 0 110.801-11.008 162.49-33.024 51.665-21.9 96.256-51.619 133.679-89.041 37.423-37.399 67.165-82.013 89.041-133.679 22.016-51.712 33.001-105.844 33.001-162.467 0-87.087-24.599-166.097-73.635-237.033l203.776-203.753c14.662-14.615 21.946-32.372 21.946-53.434zM628.387 329.379c52.038 52.061 78.057 114.804 78.057 187.997 0 73.239-26.019 135.983-78.057 188.044-52.061 52.038-114.804 78.057-188.067 78.057-73.193 0-135.913-26.019-187.974-78.057-52.038-52.061-78.127-114.804-78.127-188.044 0-73.216 26.089-135.936 78.127-187.997 52.061-52.038 114.804-78.127 187.974-78.127 73.263 0 136.006 26.089 188.067 78.127z" />
<glyph unicode="&#xe906;" glyph-name="twitter" d="M1020.642 763.535c-28.315-41.532-62.607-76.895-102.829-106.091 0.476-5.858 0.643-14.788 0.643-26.648 0-54.986-8.049-109.854-24.1-164.65-16.146-54.844-40.603-107.401-73.347-157.72-32.839-50.414-71.823-94.97-117.165-133.62-45.199-38.793-99.852-69.632-163.721-92.755-63.917-23.028-132.239-34.554-205.062-34.554-114.617 0-219.612 30.649-314.797 92.089 14.765-1.762 31.315-2.548 49.485-2.548 95.256 0 180.057 29.22 254.524 87.54-44.413 0.881-84.206 14.55-119.284 40.984-35.197 26.457-59.297 60.178-72.394 101.209 13.931-2.096 26.815-3.12 38.721-3.12 18.17 0 36.173 2.334 53.939 6.977-47.366 9.668-86.659 33.34-117.736 70.799-31.125 37.436-46.675 80.848-46.675 130.429v2.548c28.767-16.098 59.702-24.79 92.732-26.005-27.958 18.551-50.176 42.889-66.655 72.966-16.503 30.006-24.79 62.559-24.79 97.756 0 37.197 9.359 71.632 27.958 103.4 51.2-63.059 113.545-113.545 186.963-151.385s152.028-58.892 235.782-63.107c-3.405 16.003-5.072 31.673-5.072 47.033 0 56.653 20.004 104.924 60.011 144.932 40.007 40.055 88.278 60.011 145.027 60.011 59.249 0 109.163-21.528 149.861-64.75 46.104 8.883 89.493 25.433 130.096 49.533-15.67-48.652-45.675-86.326-90.088-112.973 39.293 4.191 78.634 14.693 117.974 31.72z" />
<glyph unicode="&#xe907;" glyph-name="yt" d="M1023.357 770.798v-630.76c0-52.129-18.456-96.685-55.558-133.668-36.935-37.055-81.563-55.558-133.644-55.558h-630.713c-52.105 0-96.732 18.503-133.692 55.558-37.055 37.007-55.534 81.539-55.534 133.668v630.76c0 52.105 18.48 96.685 55.534 133.644 36.935 37.055 81.563 55.558 133.668 55.558h630.713c52.105 0 96.732-18.503 133.644-55.558 37.102-36.983 55.582-81.539 55.582-133.644zM880.116 275.42c0 77.491-4.215 134.406-12.479 170.841-4.429 19.265-13.788 35.34-28.267 48.295-14.455 12.836-31.125 20.385-49.938 22.576-59.583 6.62-149.79 9.883-270.646 9.883-120.499 0-210.515-3.263-270.050-9.883-19.289-2.191-36.054-9.74-50.247-22.576-14.241-12.955-23.552-29.053-27.934-48.295-8.764-38.126-13.121-95.041-13.121-170.841 0-77.11 4.358-134.049 13.121-170.865 4.382-18.837 13.693-34.864 27.934-47.985 14.217-13.145 30.744-20.79 49.557-23.004 60.035-6.501 150.266-9.883 270.741-9.883 120.451 0 210.634 3.382 270.646 9.883 18.813 2.215 35.388 9.859 49.581 23.004 14.265 13.121 23.552 29.148 27.981 47.985 8.764 36.816 13.121 93.756 13.121 170.865zM363.711 442.904v-45.985h-52.557v-277.909h-48.628v277.909h-51.271v45.985h152.457zM384.071 703.143l59.13 194.369h-49.271l-33.53-128.095-34.768 128.095h-51.248c3.072-10.049 8.097-25.195 15.098-45.294 7.001-20.147 12.264-35.245 15.741-45.318 15.36-45.104 25.433-79.705 30.244-103.734v-132.144h48.628v132.12h-0.024zM495.807 360.127v-241.092h-44.056v26.267c-17.098-19.718-33.721-29.577-49.962-29.577-14.407 0-23.623 6.12-27.6 18.361-2.572 7.478-3.929 19.361-3.929 35.554v190.488h43.341v-177.343c0-10.55 0.238-16.193 0.643-17.075 0.476-6.596 3.763-9.859 9.907-9.859 8.692 0 17.908 6.787 27.577 20.337v183.963l44.080-0.024zM573.988 649.871v85.468c0 25.362-4.596 44.437-13.788 57.082-12.74 16.67-29.815 25.028-51.248 25.028-22.337 0-39.436-8.359-51.248-25.028-9.216-12.645-13.812-31.72-13.812-57.082v-85.468c0-25.409 4.596-44.461 13.812-57.13 11.812-16.622 28.934-24.981 51.248-24.981 21.433 0 38.507 8.359 51.248 24.981 9.168 11.812 13.788 30.863 13.788 57.13zM529.956 743.865v-102.543c0-22.314-7.025-33.506-21.028-33.506-14.050 0-21.052 11.216-21.052 33.506v102.543c0 22.695 7.001 34.102 21.052 34.102 14.003-0.024 21.028-11.407 21.028-34.102zM661.361 287.208v-95.899c0-22.838-1.596-38.817-4.596-48.033-5.287-18.361-16.908-27.577-34.84-27.577-15.336 0-30.244 9.002-44.699 27.005v-23.671h-44.032v323.894h44.032v-105.782c14.050 17.527 28.934 26.338 44.699 26.338 17.932 0 29.553-9.192 34.84-27.6 3.001-9.24 4.596-25.481 4.596-48.676zM617.948 188.047v103.091c0 21.933-6.335 32.839-19.027 32.839-7.454 0-14.693-3.524-21.695-10.526v-147.17c7.001-7.001 14.241-10.431 21.695-10.431 12.717-0.024 19.027 10.74 19.027 32.196zM692.891 570.999h44.008v243.188h-44.008v-186.011c-9.621-13.574-18.837-20.361-27.6-20.361-6.549 0-10.097 3.524-10.526 10.502-0.429 0.857-0.595 6.596-0.595 17.051v178.819h-44.056v-192.583c0-16.217 1.31-28.196 3.929-36.15 4.834-11.788 14.241-17.718 28.291-17.718 15.741 0 32.601 9.883 50.581 29.601v-26.338h-0.024zM826.249 202.502v-5.953c0-12.717-0.429-22.147-1.357-28.267-1.31-9.668-4.548-18.384-9.788-26.267-11.883-17.527-29.41-26.338-52.557-26.338-22.814 0-40.531 8.335-53.224 25.005-9.216 11.788-13.812 30.672-13.812 56.534v84.706c0 25.886 4.382 44.723 13.121 56.511 12.717 16.67 30.244 25.028 52.557 25.028 22.337 0 39.46-8.359 51.271-25.028 9.168-12.74 13.788-31.506 13.788-56.511v-49.914h-87.397v-42.722c0-22.337 7.454-33.459 22.337-33.459 10.526 0 17.122 5.644 19.766 17.051 0 0.381 0.071 2 0.286 4.572 0.191 2.62 0.333 6.263 0.333 10.835v14.217h44.675zM738.852 268.133h43.365v22.337c0 22.409-7.263 33.506-21.718 33.506-14.384 0-21.647-11.097-21.647-33.506v-22.337z" />
<glyph unicode="&#xe908;" horiz-adv-x="1007" d="M1003.481 430.267c0-271.766-220.31-492.075-492.075-492.075s-492.075 220.31-492.075 492.075c0 271.766 220.31 492.075 492.075 492.075s492.075-220.31 492.075-492.075z" />
<glyph unicode="&#xe909;" horiz-adv-x="1007" d="M485.025-10.058c-267.442 0-485.025 217.578-485.025 485.033 0 267.438 217.583 485.025 485.025 485.025s485.025-217.583 485.025-485.025c0-267.455-217.587-485.033-485.025-485.033zM485.025 951.231c-262.6 0-476.255-213.656-476.255-476.251 0-262.608 213.652-476.242 476.255-476.242s476.255 213.63 476.255 476.242c-0.004 262.595-213.656 476.251-476.255 476.251z" />
<glyph unicode="&#xe90a;" horiz-adv-x="1007" d="M567.188 599.864c-42.075 0-64.304-65.788-64.304-65.788s-0.443-1.15-1.219-3.137c-0.746 1.987-1.202 3.137-1.202 3.137s-22.211 65.788-64.278 65.788c-42.066 0-227.914-131.549-227.914-131.549s86.485-170.145 292.196-168.765c0.417 0 0.79 0.035 1.202 0.052 0.425-0.017 0.807-0.052 1.219-0.052 205.711-1.38 292.204 168.765 292.204 168.765s-185.843 131.549-227.905 131.549z" />
<glyph unicode="&#xe90b;" horiz-adv-x="1020" d="M984.151 467.925c0-271.766-220.31-492.075-492.075-492.075s-492.075 220.31-492.075 492.075c0 271.766 220.31 492.075 492.075 492.075s492.075-220.31 492.075-492.075z" />
<glyph unicode="&#xe90c;" horiz-adv-x="1020" d="M637.826 331.338c-53.326 6.734-116.68 80.879-149.96 155.123l-51.191-14.375-4.521 16.085 49.204 13.82c-3.046 7.801-5.745 15.547-8.014 23.17l-44.596-12.527-4.513 16.102 44.874 12.587c-1.866 8.348-3.441 16.54-4.886 24.628l-45.468-12.752-4.513 16.080 47.247 13.282c-10.34 68.782-6.725 122.077-6.725 122.077h-147.977c0 0-39.047-124.251-41.667-215.795-2.603-91.544 66.703-257.618 66.703-257.618h22.237c0 0-9.134 126.763 19.617 119.617 28.772-7.155 103.246-119.617 202.947-119.617h142.293c0 0 7.841 88.923-81.091 100.113z" />
<glyph unicode="&#xe90d;" horiz-adv-x="1020" d="M436.68 472.086l51.191 14.375c-2.326 5.176-4.487 10.366-6.508 15.525l-49.204-13.82 4.521-16.080z" />
<glyph unicode="&#xe90e;" horiz-adv-x="1020" d="M428.752 512.633l44.596 12.527c-1.614 5.411-3.020 10.752-4.2 16.002-0.013 0.052-0.022 0.104-0.039 0.165l-44.874-12.587 4.517-16.106z" />
<glyph unicode="&#xe90f;" horiz-adv-x="1020" d="M418.755 553.194l45.468 12.752c-0.998 5.619-1.918 11.151-2.738 16.605l-47.247-13.282 4.517-16.076z" />
<glyph unicode="&#xe910;" horiz-adv-x="1020" d="M530.54-59.96c-267.442 0-485.025 217.578-485.025 485.033 0 267.442 217.583 485.025 485.025 485.025s485.020-217.583 485.020-485.025c0-267.459-217.578-485.033-485.020-485.033zM530.54 901.324c-262.6 0-476.255-213.656-476.255-476.251 0-262.608 213.652-476.242 476.255-476.242s476.251 213.63 476.251 476.242c0 262.595-213.652 476.251-476.251 476.251z" />
<glyph unicode="&#xe911;" horiz-adv-x="1028" d="M996.822 436.433c0-275.265-223.146-498.411-498.411-498.411s-498.411 223.146-498.411 498.411c0 275.265 223.146 498.411 498.411 498.411s498.411-223.146 498.411-498.411z" />
<glyph unicode="&#xe912;" horiz-adv-x="1028" d="M467.296 568.929c0-55.34-44.858-100.203-100.181-100.203-55.309 0-100.154 44.863-100.154 100.203 0 55.309 44.845 100.15 100.154 100.15 55.318 0 100.181-44.841 100.181-100.15z" />
<glyph unicode="&#xe913;" horiz-adv-x="1028" d="M363.999 554.733c-12.367 43.676 297.553 24.369 287.907-1.037-55.107-230.69-46.84-367.893-46.84-367.893s-104.712-34.75-196.96 0c-1.002 12.385-23.403 302.862-44.107 368.93z" />
<glyph unicode="&#xe914;" horiz-adv-x="1028" d="M457.192 373.375l-17.122 4.026c12.473 53.195 77.635 319.040 134.667 324.872 56.702 5.907 145.245-101.161 155.125-113.387l-13.69-11.075c-25.209 31.168-99.64 111.102-139.589 106.971-19.768-2.022-69.83-99.961-119.39-311.406z" />
<glyph unicode="&#xe915;" horiz-adv-x="1028" d="M626.789 490.133c-25.323 11.128-67.29 22.212-115.976 22.616l-7.665 0.031c-52.426 0-90.635-4.782-118.683-8.381-3.366 19.526-8.443 37.053-10.996 45.847-0.202 0.721-0.18 1.468 0.571 2.54 5.45 7.792 35.036 16.12 101.675 16.12 83.458 0 154.918-12.415 163.115-20.814-4.267-19.012-8.174-37.897-12.042-57.959z" />
<glyph unicode="&#xe916;" horiz-adv-x="1028" d="M536.15-22.548c-270.885 0-491.269 220.38-491.269 491.278 0 270.885 220.384 491.269 491.269 491.269s491.265-220.384 491.265-491.269c0-270.899-220.384-491.278-491.265-491.278zM536.15 951.118c-265.981 0-482.388-216.402-482.388-482.388 0-265.989 216.402-482.37 482.388-482.37s482.383 216.376 482.383 482.37c-0.004 265.985-216.402 482.388-482.383 482.388z" />
<glyph unicode="&#xe917;" horiz-adv-x="1002" d="M1000.162 467.925c0-271.766-220.31-492.075-492.075-492.075s-492.075 220.31-492.075 492.075c0 271.766 220.31 492.075 492.075 492.075s492.075-220.31 492.075-492.075z" />
<glyph unicode="&#xe918;" horiz-adv-x="1002" d="M643.922 246.762c0-6.769-5.532-12.301-12.305-12.301h-341.495c-6.769 0-12.301 5.532-12.301 12.301v246.584c0 6.769 5.532 12.301 12.301 12.301h341.495c6.773 0 12.305-5.532 12.305-12.301v-246.584z" />
<glyph unicode="&#xe919;" horiz-adv-x="1002" d="M418.755 437.903v-136.465l116.48 68.252z" />
<glyph unicode="&#xe91a;" horiz-adv-x="1002" d="M418.755 584.4c0-36.3-29.397-65.684-65.644-65.684-36.261 0-65.662 29.379-65.662 65.684 0 36.257 29.397 65.64 65.662 65.64 36.244 0 65.644-29.384 65.644-65.64z" />
<glyph unicode="&#xe91b;" horiz-adv-x="1002" d="M626.575 610.057c0-50.458-40.873-91.34-91.305-91.34-50.467 0-91.375 40.882-91.375 91.34s40.908 91.331 91.375 91.331c50.432 0 91.305-40.873 91.305-91.331z" />
<glyph unicode="&#xe91c;" horiz-adv-x="1002" d="M662.38 393.693c-2.408-1.241-4.374-4.473-4.374-7.177v-96.343c0-2.708 1.992-5.888 4.426-7.073l71.493-34.777c2.434-1.18 4.426 0.065 4.426 2.768v176.896c0 2.708-1.966 3.901-4.374 2.66l-71.598-36.955z" />
<glyph unicode="&#xe91d;" horiz-adv-x="1002" d="M485.025-60.798c-267.442 0-485.025 217.578-485.025 485.033 0 267.442 217.583 485.020 485.025 485.020s485.020-217.583 485.020-485.020c0-267.455-217.578-485.033-485.020-485.033zM485.025 900.487c-262.6 0-476.255-213.652-476.255-476.251 0-262.608 213.652-476.242 476.255-476.242s476.251 213.63 476.251 476.242c0 262.6-213.647 476.251-476.251 476.251z" />
</font>
</defs>
</svg>
