<?xml version="1.0" encoding="UTF-8" standalone="no"?>
<svg width="43px" height="43px" viewBox="0 0 43 43" version="1.1" xmlns="http://www.w3.org/2000/svg" xmlns:xlink="http://www.w3.org/1999/xlink">
    <!-- Generator: Sketch 42 (36781) - http://www.bohemiancoding.com/sketch -->
    <title>Shape</title>
    <desc>Created with Sketch.</desc>
    <defs></defs>
    <g id="Page-1" stroke="none" stroke-width="1" fill="none" fill-rule="evenodd">
        <g id="Icons-font-awesome" transform="translate(-563.000000, -1.000000)" fill-rule="nonzero" fill="#04B2B2">
            <g id="Group">
                <path d="M603.533,1.068 C604.179,1.068 604.73,1.297 605.189,1.756 C605.646,2.218 605.88,2.768 605.88,3.412 L605.88,41.104 C605.88,41.749 605.646,42.301 605.189,42.759 C604.73,43.22 604.179,43.45 603.533,43.45 L592.746,43.45 L592.746,27.031 L598.236,27.031 L599.066,20.629 L592.746,20.629 L592.746,16.546 C592.746,15.515 592.963,14.743 593.392,14.229 C593.826,13.714 594.667,13.456 595.917,13.456 L599.282,13.43 L599.282,7.718 C598.122,7.551 596.487,7.469 594.372,7.469 C591.87,7.469 589.872,8.205 588.368,9.676 C586.872,11.149 586.124,13.228 586.124,15.912 L586.124,20.63 L580.604,20.63 L580.604,27.032 L586.124,27.032 L586.124,43.451 L565.843,43.451 C565.197,43.451 564.646,43.221 564.187,42.76 C563.728,42.302 563.496,41.749 563.496,41.105 L563.496,3.413 C563.496,2.768 563.728,2.219 564.187,1.757 C564.646,1.298 565.197,1.069 565.843,1.069 L603.533,1.069 L603.533,1.068 Z" id="Shape"></path>
            </g>
        </g>
    </g>
</svg>