<?xml version="1.0" encoding="UTF-8" standalone="no"?>
<svg width="43px" height="43px" viewBox="0 0 43 43" version="1.1" xmlns="http://www.w3.org/2000/svg" xmlns:xlink="http://www.w3.org/1999/xlink">
    <!-- Generator: Sketch 42 (36781) - http://www.bohemiancoding.com/sketch -->
    <title>Shape</title>
    <desc>Created with Sketch.</desc>
    <defs></defs>
    <g id="Page-1" stroke="none" stroke-width="1" fill="none" fill-rule="evenodd">
        <g id="Icons-font-awesome" transform="translate(-321.000000, -1.000000)" fill-rule="nonzero" fill="#E4687F">
            <g id="Group">
                <path d="M361.533,1.068 C362.179,1.068 362.73,1.297 363.189,1.756 C363.646,2.218 363.88,2.768 363.88,3.412 L363.88,41.104 C363.88,41.749 363.646,42.301 363.189,42.759 C362.73,43.22 362.179,43.45 361.533,43.45 L350.746,43.45 L350.746,27.031 L356.236,27.031 L357.066,20.629 L350.746,20.629 L350.746,16.546 C350.746,15.515 350.963,14.743 351.392,14.229 C351.826,13.714 352.667,13.456 353.917,13.456 L357.282,13.43 L357.282,7.718 C356.122,7.551 354.487,7.469 352.372,7.469 C349.87,7.469 347.872,8.205 346.368,9.676 C344.872,11.149 344.124,13.228 344.124,15.912 L344.124,20.63 L338.604,20.63 L338.604,27.032 L344.124,27.032 L344.124,43.451 L323.843,43.451 C323.197,43.451 322.646,43.221 322.187,42.76 C321.728,42.302 321.496,41.749 321.496,41.105 L321.496,3.413 C321.496,2.768 321.728,2.219 322.187,1.757 C322.646,1.298 323.197,1.069 323.843,1.069 L361.533,1.069 L361.533,1.068 Z" id="Shape"></path>
            </g>
        </g>
    </g>
</svg>