<?xml version="1.0" encoding="UTF-8" standalone="no"?>
<svg width="43px" height="43px" viewBox="0 0 43 43" version="1.1" xmlns="http://www.w3.org/2000/svg" xmlns:xlink="http://www.w3.org/1999/xlink">
    <!-- Generator: Sketch 42 (36781) - http://www.bohemiancoding.com/sketch -->
    <title>Shape</title>
    <desc>Created with Sketch.</desc>
    <defs></defs>
    <g id="Page-1" stroke="none" stroke-width="1" fill="none" fill-rule="evenodd">
        <g id="Icons-font-awesome" transform="translate(-95.000000, -1.000000)" fill-rule="nonzero" fill="#000000">
            <g id="Group">
                <path d="M135.033,1.068 C135.679,1.068 136.23,1.297 136.689,1.756 C137.146,2.218 137.38,2.768 137.38,3.412 L137.38,41.104 C137.38,41.749 137.146,42.301 136.689,42.759 C136.23,43.22 135.679,43.45 135.033,43.45 L124.246,43.45 L124.246,27.031 L129.736,27.031 L130.566,20.629 L124.246,20.629 L124.246,16.546 C124.246,15.515 124.463,14.743 124.892,14.229 C125.326,13.714 126.167,13.456 127.417,13.456 L130.782,13.43 L130.782,7.718 C129.622,7.551 127.987,7.469 125.872,7.469 C123.37,7.469 121.372,8.205 119.868,9.676 C118.372,11.149 117.624,13.228 117.624,15.912 L117.624,20.63 L112.104,20.63 L112.104,27.032 L117.624,27.032 L117.624,43.451 L97.344,43.451 C96.698,43.451 96.147,43.221 95.688,42.76 C95.229,42.302 94.997,41.749 94.997,41.105 L94.997,3.413 C94.997,2.768 95.229,2.219 95.688,1.757 C96.147,1.298 96.698,1.069 97.344,1.069 L135.033,1.069 L135.033,1.068 Z" id="Shape"></path>
            </g>
        </g>
    </g>
</svg>