<?xml version="1.0" encoding="UTF-8" standalone="no"?>
<svg width="231px" height="236px" viewBox="0 0 231 236" version="1.1" xmlns="http://www.w3.org/2000/svg" xmlns:xlink="http://www.w3.org/1999/xlink">
    <!-- Generator: Sketch 42 (36781) - http://www.bohemiancoding.com/sketch -->
    <title>Group 2</title>
    <desc>Created with Sketch.</desc>
    <defs></defs>
    <g id="Page-1" stroke="none" stroke-width="1" fill="none" fill-rule="evenodd">
        <g id="Group-2" fill-rule="nonzero">
            <circle id="Oval" fill="#E46980" cx="117.098" cy="113.408" r="113.408"></circle>
            <g id="Group" transform="translate(63.539000, 59.349000)">
                <path d="M84.865,105.03 C84.865,106.59 83.59,107.865 82.029,107.865 L3.325,107.865 C1.765,107.865 0.49,106.59 0.49,105.03 L0.49,48.2 C0.49,46.64 1.765,45.365 3.325,45.365 L82.029,45.365 C83.59,45.365 84.865,46.64 84.865,48.2 L84.865,105.03 Z" id="Shape" fill="#FFFFFF"></path>
                <polygon id="Shape" fill="#E46980" points="32.971 60.978 32.971 76.699 32.971 92.429 59.816 76.699"></polygon>
                <path d="M32.971,27.215 C32.971,35.581 26.196,42.353 17.842,42.353 C9.485,42.353 2.709,35.582 2.709,27.215 C2.709,18.859 9.484,12.087 17.842,12.087 C26.195,12.087 32.971,18.859 32.971,27.215 Z" id="Shape" fill="#FFFFFF"></path>
                <path d="M80.867,21.302 C80.867,32.931 71.447,42.353 59.824,42.353 C48.193,42.353 38.765,32.931 38.765,21.302 C38.765,9.673 48.193,0.253 59.824,0.253 C71.447,0.253 80.867,9.673 80.867,21.302 Z" id="Shape" fill="#FFFFFF"></path>
                <path d="M89.119,71.167 C88.564,71.453 88.111,72.198 88.111,72.821 L88.111,95.025 C88.111,95.649 88.57,96.382 89.131,96.655 L105.608,104.67 C106.169,104.942 106.628,104.655 106.628,104.032 L106.628,63.263 C106.628,62.639 106.175,62.364 105.62,62.65 L89.119,71.167 Z" id="Shape" fill="#FFFFFF"></path>
            </g>
            <path d="M111.783,235.262 C50.146,235.262 0,185.117 0,123.477 C0,61.84 50.146,11.695 111.783,11.695 C173.42,11.695 223.565,61.841 223.565,123.477 C223.565,185.117 173.42,235.262 111.783,235.262 Z M111.783,13.716 C51.262,13.716 2.021,62.956 2.021,123.477 C2.021,184 51.261,233.236 111.783,233.236 C172.305,233.236 221.544,184.001 221.544,123.477 C221.544,62.956 172.305,13.716 111.783,13.716 Z" id="Shape" fill="#FFFFFF"></path>
        </g>
    </g>
</svg>