<?xml version="1.0" encoding="UTF-8" standalone="no"?>
<svg width="232px" height="236px" viewBox="0 0 232 236" version="1.1" xmlns="http://www.w3.org/2000/svg" xmlns:xlink="http://www.w3.org/1999/xlink">
    <!-- Generator: Sketch 42 (36781) - http://www.bohemiancoding.com/sketch -->
    <title>Group</title>
    <desc>Created with Sketch.</desc>
    <defs></defs>
    <g id="Page-1" stroke="none" stroke-width="1" fill="none" fill-rule="evenodd">
        <g id="Group" fill-rule="nonzero">
            <circle id="Oval" fill="#E46980" cx="117.863" cy="122.087" r="113.408"></circle>
            <path d="M111.783,223.568 C50.146,223.568 0,173.423 0,111.783 C0,50.147 50.146,0 111.783,0 C173.42,0 223.566,50.146 223.566,111.783 C223.566,173.423 173.419,223.568 111.783,223.568 Z M111.783,2.021 C51.262,2.021 2.021,51.262 2.021,111.782 C2.021,172.305 51.261,221.541 111.783,221.541 C172.305,221.541 221.545,172.306 221.545,111.782 C221.544,51.262 172.304,2.021 111.783,2.021 Z" id="Shape" fill="#FFFFFF"></path>
            <path d="M130.719,83 C121.022,83 115.899,98.162 115.899,98.162 C115.899,98.162 115.797,98.427 115.618,98.885 C115.446,98.427 115.341,98.162 115.341,98.162 C115.341,98.162 110.222,83 100.527,83 C90.832,83 48,113.318 48,113.318 C48,113.318 67.932,152.531 115.342,152.213 C115.438,152.213 115.524,152.205 115.619,152.201 C115.717,152.205 115.805,152.213 115.9,152.213 C163.31,152.531 183.244,113.318 183.244,113.318 C183.244,113.318 140.413,83 130.719,83 Z" id="Shape" fill="#FFFFFF"></path>
        </g>
    </g>
</svg>