<?xml version="1.0" encoding="UTF-8" standalone="no"?>
<svg width="235px" height="236px" viewBox="0 0 235 236" version="1.1" xmlns="http://www.w3.org/2000/svg" xmlns:xlink="http://www.w3.org/1999/xlink">
    <!-- Generator: Sketch 42 (36781) - http://www.bohemiancoding.com/sketch -->
    <title>Group 2</title>
    <desc>Created with Sketch.</desc>
    <defs></defs>
    <g id="Page-1" stroke="none" stroke-width="1" fill="none" fill-rule="evenodd">
        <g id="Group-2" fill-rule="nonzero">
            <circle id="Oval" fill="#E46980" cx="113.408" cy="113.408" r="113.408"></circle>
            <g id="Group" transform="translate(60.849000, 58.849000)">
                <path d="M86.15,86.038 C73.86,84.486 59.259,67.398 51.589,50.287 L39.791,53.6 L38.749,49.893 L50.089,46.708 C49.387,44.91 48.765,43.125 48.242,41.368 L37.964,44.255 L36.924,40.544 L47.266,37.643 C46.836,35.719 46.473,33.831 46.14,31.967 L35.661,34.906 L34.621,31.2 L45.51,28.139 C43.127,12.287 43.96,0.004 43.96,0.004 L9.856,0.004 C9.856,0.004 0.857,28.64 0.253,49.738 C-0.347,70.836 15.626,109.111 15.626,109.111 L20.751,109.111 C20.751,109.111 18.646,79.896 25.272,81.543 C31.903,83.192 49.067,109.111 72.045,109.111 L104.839,109.111 C104.839,109.111 106.646,88.617 86.15,86.038 Z" id="Shape" fill="#FFFFFF"></path>
                <path d="M39.792,53.6 L51.59,50.287 C51.054,49.094 50.556,47.898 50.09,46.709 L38.75,49.894 L39.792,53.6 Z" id="Shape" fill="#E46980"></path>
                <path d="M37.965,44.255 L48.243,41.368 C47.871,40.121 47.547,38.89 47.275,37.68 C47.272,37.668 47.27,37.656 47.266,37.642 L36.924,40.543 L37.965,44.255 Z" id="Shape" fill="#E46980"></path>
                <path d="M35.661,34.907 L46.14,31.968 C45.91,30.673 45.698,29.398 45.509,28.141 L34.62,31.202 L35.661,34.907 Z" id="Shape" fill="#E46980"></path>
            </g>
            <path d="M122.273,235.069 C60.636,235.069 10.49,184.924 10.49,123.284 C10.49,61.647 60.636,11.501 122.273,11.501 C183.91,11.501 234.055,61.647 234.055,123.284 C234.055,184.925 183.91,235.069 122.273,235.069 Z M122.273,13.523 C61.752,13.523 12.511,62.764 12.511,123.284 C12.511,183.807 61.751,233.043 122.273,233.043 C182.795,233.043 232.034,183.808 232.034,123.284 C232.034,62.764 182.794,13.523 122.273,13.523 Z" id="Shape" fill="#FFFFFF"></path>
        </g>
    </g>
</svg>