<?xml version="1.0" encoding="UTF-8" standalone="no"?>
<svg width="234px" height="233px" viewBox="0 0 234 233" version="1.1" xmlns="http://www.w3.org/2000/svg" xmlns:xlink="http://www.w3.org/1999/xlink">
    <!-- Generator: Sketch 42 (36781) - http://www.bohemiancoding.com/sketch -->
    <title>Group 2</title>
    <desc>Created with Sketch.</desc>
    <defs></defs>
    <g id="Page-1" stroke="none" stroke-width="1" fill="none" fill-rule="evenodd">
        <g id="Group-2" fill-rule="nonzero">
            <circle id="Oval" fill="#E46980" cx="113.408" cy="119.132" r="113.408"></circle>
            <g id="Group" transform="translate(59.849000, 58.073000)">
                <path d="M46.479,30.911 C46.479,43.503 36.272,53.711 23.684,53.711 C11.099,53.711 0.895,43.503 0.895,30.911 C0.895,18.326 11.099,8.123 23.684,8.123 C36.271,8.123 46.479,18.326 46.479,30.911 Z" id="Shape" fill="#FFFFFF"></path>
                <path d="M22.975,34.141 C20.161,24.203 90.68,28.596 88.485,34.377 C75.946,86.868 77.827,118.087 77.827,118.087 C77.827,118.087 54.001,125.994 33.011,118.087 C32.783,115.269 27.686,49.174 22.975,34.141 Z" id="Shape" fill="#FFFFFF"></path>
                <path d="M44.18,75.407 L40.284,74.491 C43.122,62.387 57.949,1.897 70.926,0.57 C83.828,-0.774 103.975,23.588 106.223,26.37 L103.108,28.89 C97.372,21.798 80.436,3.61 71.346,4.55 C66.848,5.01 55.457,27.295 44.18,75.407 Z" id="Shape" fill="#FFFFFF"></path>
                <path d="M82.77,48.84 C77.008,46.308 67.459,43.786 56.381,43.694 L54.637,43.687 C42.708,43.687 34.014,44.775 27.632,45.594 C26.866,41.151 25.711,37.163 25.13,35.162 C25.084,34.998 25.089,34.828 25.26,34.584 C26.5,32.811 33.232,30.916 48.395,30.916 C67.385,30.916 83.645,33.741 85.51,35.652 C84.539,39.978 83.65,44.275 82.77,48.84 Z" id="Shape" fill="#E46980"></path>
            </g>
            <path d="M121.995,223.568 C60.358,223.568 10.212,173.423 10.212,111.783 C10.212,50.146 60.358,0 121.995,0 C183.632,0 233.777,50.146 233.777,111.783 C233.777,173.423 183.631,223.568 121.995,223.568 Z M121.995,2.021 C61.474,2.021 12.233,51.261 12.233,111.783 C12.233,172.306 61.473,221.541 121.995,221.541 C182.517,221.541 231.756,172.307 231.756,111.783 C231.755,51.261 182.516,2.021 121.995,2.021 Z" id="Shape" fill="#FFFFFF"></path>
        </g>
    </g>
</svg>