<?xml version="1.0" encoding="UTF-8" standalone="no"?>
<svg width="44px" height="43px" viewBox="0 0 44 43" version="1.1" xmlns="http://www.w3.org/2000/svg" xmlns:xlink="http://www.w3.org/1999/xlink">
    <!-- Generator: Sketch 42 (36781) - http://www.bohemiancoding.com/sketch -->
    <title>Shape</title>
    <desc>Created with Sketch.</desc>
    <defs></defs>
    <g id="Page-1" stroke="none" stroke-width="1" fill="none" fill-rule="evenodd">
        <g id="Icons-font-awesome" transform="translate(-458.000000, -1.000000)" fill-rule="nonzero" fill="#04B2B2">
            <g id="Group">
                <path d="M501.077,22.241 C501.077,26.464 501.031,29.385 500.939,31.009 C500.755,34.843 499.612,37.812 497.509,39.915 C495.406,42.016 492.439,43.157 488.604,43.344 C486.98,43.436 484.059,43.483 479.835,43.483 C475.612,43.483 472.691,43.436 471.068,43.344 C467.231,43.157 464.264,42.016 462.162,39.915 C460.061,37.811 458.917,34.843 458.732,31.009 C458.641,29.385 458.594,26.464 458.594,22.241 C458.594,18.017 458.641,15.095 458.732,13.473 C458.917,9.637 460.061,6.668 462.162,4.567 C464.265,2.464 467.231,1.321 471.068,1.137 C472.691,1.046 475.612,0.999 479.835,0.999 C484.059,0.999 486.98,1.045 488.604,1.137 C492.439,1.321 495.407,2.464 497.509,4.567 C499.612,6.668 500.755,9.636 500.939,13.473 C501.031,15.096 501.077,18.018 501.077,22.241 Z M481.952,4.802 C480.671,4.812 479.965,4.816 479.836,4.816 C479.708,4.816 479.002,4.812 477.721,4.802 C476.44,4.792 475.466,4.792 474.803,4.802 C474.14,4.812 473.249,4.839 472.134,4.885 C471.018,4.93 470.07,5.023 469.285,5.163 C468.501,5.301 467.843,5.471 467.307,5.674 C466.385,6.042 465.575,6.576 464.872,7.278 C464.174,7.978 463.639,8.791 463.268,9.713 C463.067,10.248 462.895,10.906 462.756,11.691 C462.618,12.475 462.527,13.423 462.481,14.539 C462.435,15.655 462.406,16.543 462.396,17.208 C462.389,17.872 462.389,18.845 462.396,20.125 C462.406,21.407 462.411,22.111 462.411,22.242 C462.411,22.37 462.406,23.077 462.396,24.357 C462.389,25.64 462.389,26.61 462.396,27.276 C462.406,27.939 462.435,28.83 462.481,29.945 C462.527,31.06 462.619,32.009 462.756,32.793 C462.895,33.577 463.067,34.235 463.268,34.771 C463.638,35.693 464.173,36.504 464.872,37.206 C465.574,37.905 466.385,38.44 467.307,38.809 C467.842,39.012 468.5,39.184 469.285,39.322 C470.069,39.461 471.017,39.552 472.134,39.598 C473.249,39.643 474.14,39.672 474.803,39.68 C475.466,39.69 476.44,39.69 477.721,39.68 C479.002,39.672 479.708,39.668 479.836,39.668 C479.965,39.668 480.671,39.672 481.952,39.68 C483.234,39.69 484.208,39.69 484.869,39.68 C485.532,39.672 486.424,39.643 487.539,39.598 C488.654,39.552 489.603,39.46 490.388,39.322 C491.173,39.184 491.83,39.012 492.366,38.809 C493.289,38.441 494.097,37.906 494.8,37.206 C495.5,36.505 496.034,35.693 496.405,34.771 C496.607,34.236 496.777,33.578 496.915,32.793 C497.053,32.01 497.145,31.061 497.193,29.945 C497.24,28.83 497.266,27.939 497.276,27.276 C497.286,26.61 497.286,25.64 497.276,24.357 C497.266,23.077 497.261,22.37 497.261,22.242 C497.261,22.111 497.266,21.407 497.276,20.125 C497.286,18.845 497.286,17.872 497.276,17.208 C497.266,16.543 497.24,15.655 497.193,14.539 C497.145,13.423 497.052,12.475 496.915,11.691 C496.777,10.907 496.607,10.249 496.405,9.713 C496.034,8.791 495.5,7.978 494.8,7.278 C494.098,6.576 493.289,6.042 492.366,5.674 C491.831,5.47 491.174,5.301 490.388,5.163 C489.604,5.023 488.655,4.931 487.539,4.885 C486.424,4.839 485.532,4.812 484.869,4.802 C484.208,4.792 483.234,4.792 481.952,4.802 Z M487.554,14.523 C489.674,16.643 490.735,19.215 490.735,22.241 C490.735,25.264 489.674,27.836 487.554,29.957 C485.432,32.079 482.862,33.138 479.836,33.138 C476.815,33.138 474.241,32.079 472.122,29.957 C469.999,27.836 468.938,25.265 468.938,22.241 C468.938,19.216 469.999,16.643 472.122,14.523 C474.241,12.404 476.814,11.343 479.836,11.343 C482.861,11.344 485.432,12.404 487.554,14.523 Z M484.843,27.246 C486.225,25.864 486.917,24.194 486.917,22.241 C486.917,20.286 486.225,18.618 484.843,17.234 C483.459,15.851 481.792,15.16 479.836,15.16 C477.881,15.16 476.213,15.851 474.831,17.234 C473.447,18.618 472.756,20.286 472.756,22.241 C472.756,24.194 473.447,25.864 474.831,27.246 C476.213,28.631 477.881,29.32 479.836,29.32 C481.792,29.32 483.459,28.631 484.843,27.246 Z M492.975,9.103 C493.471,9.602 493.721,10.201 493.721,10.901 C493.721,11.603 493.471,12.201 492.975,12.699 C492.477,13.198 491.876,13.444 491.177,13.444 C490.475,13.444 489.878,13.197 489.379,12.699 C488.881,12.2 488.631,11.603 488.631,10.901 C488.631,10.201 488.881,9.602 489.379,9.103 C489.878,8.604 490.475,8.357 491.177,8.357 C491.876,8.357 492.477,8.604 492.975,9.103 Z" id="Shape"></path>
            </g>
        </g>
    </g>
</svg>