<?xml version="1.0" encoding="UTF-8" standalone="no"?>
<svg width="44px" height="43px" viewBox="0 0 44 43" version="1.1" xmlns="http://www.w3.org/2000/svg" xmlns:xlink="http://www.w3.org/1999/xlink">
    <!-- Generator: Sketch 42 (36781) - http://www.bohemiancoding.com/sketch -->
    <title>Shape</title>
    <desc>Created with Sketch.</desc>
    <defs></defs>
    <g id="Page-1" stroke="none" stroke-width="1" fill="none" fill-rule="evenodd">
        <g id="Icons-font-awesome" transform="translate(0.000000, -1.000000)" fill-rule="nonzero" fill="#000000">
            <g id="Group">
                <path d="M43.077,22.241 C43.077,26.464 43.031,29.385 42.939,31.009 C42.755,34.843 41.612,37.812 39.509,39.915 C37.406,42.016 34.439,43.157 30.604,43.344 C28.98,43.436 26.059,43.483 21.835,43.483 C17.612,43.483 14.691,43.436 13.068,43.344 C9.231,43.157 6.264,42.016 4.162,39.915 C2.061,37.811 0.917,34.843 0.732,31.009 C0.641,29.385 0.594,26.464 0.594,22.241 C0.594,18.017 0.641,15.095 0.732,13.473 C0.917,9.637 2.061,6.668 4.162,4.567 C6.265,2.464 9.231,1.321 13.068,1.137 C14.691,1.046 17.612,0.999 21.835,0.999 C26.059,0.999 28.98,1.045 30.604,1.137 C34.439,1.321 37.407,2.464 39.509,4.567 C41.612,6.668 42.755,9.636 42.939,13.473 C43.031,15.096 43.077,18.018 43.077,22.241 Z M23.952,4.802 C22.671,4.812 21.965,4.816 21.836,4.816 C21.708,4.816 21.002,4.812 19.721,4.802 C18.44,4.792 17.466,4.792 16.803,4.802 C16.14,4.812 15.249,4.839 14.134,4.885 C13.018,4.93 12.07,5.023 11.285,5.163 C10.501,5.301 9.843,5.471 9.307,5.674 C8.385,6.042 7.575,6.576 6.872,7.278 C6.174,7.978 5.639,8.791 5.268,9.713 C5.067,10.248 4.895,10.906 4.756,11.691 C4.618,12.475 4.527,13.423 4.481,14.539 C4.435,15.655 4.406,16.543 4.396,17.208 C4.389,17.872 4.389,18.845 4.396,20.125 C4.406,21.407 4.411,22.111 4.411,22.242 C4.411,22.37 4.406,23.077 4.396,24.357 C4.389,25.64 4.389,26.61 4.396,27.276 C4.406,27.939 4.435,28.83 4.481,29.945 C4.527,31.06 4.619,32.009 4.756,32.793 C4.895,33.577 5.067,34.235 5.268,34.771 C5.638,35.693 6.173,36.504 6.872,37.206 C7.574,37.905 8.385,38.44 9.307,38.809 C9.842,39.012 10.5,39.184 11.285,39.322 C12.069,39.461 13.017,39.552 14.134,39.598 C15.249,39.643 16.14,39.672 16.803,39.68 C17.466,39.69 18.44,39.69 19.721,39.68 C21.002,39.672 21.708,39.668 21.836,39.668 C21.965,39.668 22.671,39.672 23.952,39.68 C25.234,39.69 26.208,39.69 26.869,39.68 C27.532,39.672 28.424,39.643 29.539,39.598 C30.654,39.552 31.603,39.46 32.388,39.322 C33.173,39.184 33.83,39.012 34.366,38.809 C35.289,38.441 36.097,37.906 36.8,37.206 C37.5,36.505 38.034,35.693 38.405,34.771 C38.607,34.236 38.777,33.578 38.915,32.793 C39.053,32.01 39.145,31.061 39.193,29.945 C39.24,28.83 39.266,27.939 39.276,27.276 C39.286,26.61 39.286,25.64 39.276,24.357 C39.266,23.077 39.261,22.37 39.261,22.242 C39.261,22.111 39.266,21.407 39.276,20.125 C39.286,18.845 39.286,17.872 39.276,17.208 C39.266,16.543 39.24,15.655 39.193,14.539 C39.145,13.423 39.052,12.475 38.915,11.691 C38.777,10.907 38.607,10.249 38.405,9.713 C38.034,8.791 37.5,7.978 36.8,7.278 C36.098,6.576 35.289,6.042 34.366,5.674 C33.831,5.47 33.174,5.301 32.388,5.163 C31.604,5.023 30.655,4.931 29.539,4.885 C28.424,4.839 27.532,4.812 26.869,4.802 C26.208,4.792 25.234,4.792 23.952,4.802 Z M29.554,14.523 C31.674,16.643 32.735,19.215 32.735,22.241 C32.735,25.264 31.674,27.836 29.554,29.957 C27.432,32.079 24.862,33.138 21.836,33.138 C18.815,33.138 16.241,32.079 14.122,29.957 C11.999,27.836 10.938,25.265 10.938,22.241 C10.938,19.216 11.999,16.643 14.122,14.523 C16.241,12.404 18.814,11.343 21.836,11.343 C24.861,11.344 27.432,12.404 29.554,14.523 Z M26.843,27.246 C28.225,25.864 28.917,24.194 28.917,22.241 C28.917,20.286 28.225,18.618 26.843,17.234 C25.459,15.851 23.792,15.16 21.836,15.16 C19.881,15.16 18.213,15.851 16.831,17.234 C15.447,18.618 14.756,20.286 14.756,22.241 C14.756,24.194 15.447,25.864 16.831,27.246 C18.213,28.631 19.881,29.32 21.836,29.32 C23.792,29.32 25.459,28.631 26.843,27.246 Z M34.975,9.103 C35.471,9.602 35.721,10.201 35.721,10.901 C35.721,11.603 35.471,12.201 34.975,12.699 C34.477,13.198 33.876,13.444 33.177,13.444 C32.475,13.444 31.878,13.197 31.379,12.699 C30.881,12.2 30.631,11.603 30.631,10.901 C30.631,10.201 30.881,9.602 31.379,9.103 C31.878,8.604 32.475,8.357 33.177,8.357 C33.876,8.357 34.477,8.604 34.975,9.103 Z" id="Shape"></path>
            </g>
        </g>
    </g>
</svg>