<?xml version="1.0" encoding="UTF-8" standalone="no"?>
<svg width="43px" height="43px" viewBox="0 0 43 43" version="1.1" xmlns="http://www.w3.org/2000/svg" xmlns:xlink="http://www.w3.org/1999/xlink">
    <!-- Generator: Sketch 42 (36781) - http://www.bohemiancoding.com/sketch -->
    <title>Shape</title>
    <desc>Created with Sketch.</desc>
    <defs></defs>
    <g id="Page-1" stroke="none" stroke-width="1" fill="none" fill-rule="evenodd">
        <g id="Icons-font-awesome" transform="translate(-218.000000, -1.000000)" fill-rule="nonzero" fill="#E4687F">
            <g id="Group">
                <path d="M260.577,22.241 C260.577,26.464 260.531,29.385 260.439,31.009 C260.255,34.843 259.112,37.812 257.009,39.915 C254.906,42.016 251.939,43.157 248.104,43.344 C246.48,43.436 243.559,43.483 239.335,43.483 C235.112,43.483 232.191,43.436 230.568,43.344 C226.731,43.157 223.764,42.016 221.662,39.915 C219.561,37.811 218.417,34.843 218.232,31.009 C218.141,29.385 218.094,26.464 218.094,22.241 C218.094,18.017 218.141,15.095 218.232,13.473 C218.417,9.637 219.561,6.668 221.662,4.567 C223.765,2.464 226.731,1.321 230.568,1.137 C232.191,1.046 235.112,0.999 239.335,0.999 C243.559,0.999 246.48,1.045 248.104,1.137 C251.939,1.321 254.907,2.464 257.009,4.567 C259.112,6.668 260.255,9.636 260.439,13.473 C260.531,15.096 260.577,18.018 260.577,22.241 Z M241.452,4.802 C240.171,4.812 239.465,4.816 239.336,4.816 C239.208,4.816 238.502,4.812 237.221,4.802 C235.94,4.792 234.966,4.792 234.303,4.802 C233.64,4.812 232.749,4.839 231.634,4.885 C230.518,4.93 229.57,5.023 228.785,5.163 C228.001,5.301 227.343,5.471 226.807,5.674 C225.885,6.042 225.075,6.576 224.372,7.278 C223.674,7.978 223.139,8.791 222.768,9.713 C222.567,10.248 222.395,10.906 222.256,11.691 C222.118,12.475 222.027,13.423 221.981,14.539 C221.935,15.655 221.906,16.543 221.896,17.208 C221.889,17.872 221.889,18.845 221.896,20.125 C221.906,21.407 221.911,22.111 221.911,22.242 C221.911,22.37 221.906,23.077 221.896,24.357 C221.889,25.64 221.889,26.61 221.896,27.276 C221.906,27.939 221.935,28.83 221.981,29.945 C222.027,31.06 222.119,32.009 222.256,32.793 C222.395,33.577 222.567,34.235 222.768,34.771 C223.138,35.693 223.673,36.504 224.372,37.206 C225.074,37.905 225.885,38.44 226.807,38.809 C227.342,39.012 228,39.184 228.785,39.322 C229.569,39.461 230.517,39.552 231.634,39.598 C232.749,39.643 233.64,39.672 234.303,39.68 C234.966,39.69 235.94,39.69 237.221,39.68 C238.502,39.672 239.208,39.668 239.336,39.668 C239.465,39.668 240.171,39.672 241.452,39.68 C242.734,39.69 243.708,39.69 244.369,39.68 C245.032,39.672 245.924,39.643 247.039,39.598 C248.154,39.552 249.103,39.46 249.888,39.322 C250.673,39.184 251.33,39.012 251.866,38.809 C252.789,38.441 253.597,37.906 254.3,37.206 C255,36.505 255.534,35.693 255.905,34.771 C256.107,34.236 256.277,33.578 256.415,32.793 C256.553,32.01 256.645,31.061 256.693,29.945 C256.74,28.83 256.766,27.939 256.776,27.276 C256.786,26.61 256.786,25.64 256.776,24.357 C256.766,23.077 256.761,22.37 256.761,22.242 C256.761,22.111 256.766,21.407 256.776,20.125 C256.786,18.845 256.786,17.872 256.776,17.208 C256.766,16.543 256.74,15.655 256.693,14.539 C256.645,13.423 256.552,12.475 256.415,11.691 C256.277,10.907 256.107,10.249 255.905,9.713 C255.534,8.791 255,7.978 254.3,7.278 C253.598,6.576 252.789,6.042 251.866,5.674 C251.331,5.47 250.674,5.301 249.888,5.163 C249.104,5.023 248.155,4.931 247.039,4.885 C245.924,4.839 245.032,4.812 244.369,4.802 C243.708,4.792 242.734,4.792 241.452,4.802 Z M247.054,14.523 C249.174,16.643 250.235,19.215 250.235,22.241 C250.235,25.264 249.174,27.836 247.054,29.957 C244.932,32.079 242.362,33.138 239.336,33.138 C236.315,33.138 233.741,32.079 231.622,29.957 C229.499,27.836 228.438,25.265 228.438,22.241 C228.438,19.216 229.499,16.643 231.622,14.523 C233.741,12.404 236.314,11.343 239.336,11.343 C242.361,11.344 244.932,12.404 247.054,14.523 Z M244.343,27.246 C245.725,25.864 246.417,24.194 246.417,22.241 C246.417,20.286 245.725,18.618 244.343,17.234 C242.959,15.851 241.292,15.16 239.336,15.16 C237.381,15.16 235.713,15.851 234.331,17.234 C232.947,18.618 232.256,20.286 232.256,22.241 C232.256,24.194 232.947,25.864 234.331,27.246 C235.713,28.631 237.381,29.32 239.336,29.32 C241.292,29.32 242.959,28.631 244.343,27.246 Z M252.475,9.103 C252.971,9.602 253.221,10.201 253.221,10.901 C253.221,11.603 252.971,12.201 252.475,12.699 C251.977,13.198 251.376,13.444 250.677,13.444 C249.975,13.444 249.378,13.197 248.879,12.699 C248.381,12.2 248.131,11.603 248.131,10.901 C248.131,10.201 248.381,9.602 248.879,9.103 C249.378,8.604 249.975,8.357 250.677,8.357 C251.376,8.357 251.977,8.604 252.475,9.103 Z" id="Shape"></path>
            </g>
        </g>
    </g>
</svg>