<?xml version="1.0" encoding="UTF-8" standalone="no"?>
<svg width="144px" height="180px" viewBox="0 0 144 180" version="1.1" xmlns="http://www.w3.org/2000/svg" xmlns:xlink="http://www.w3.org/1999/xlink">
    <!-- Generator: Sketch 42 (36781) - http://www.bohemiancoding.com/sketch -->
    <title>Group</title>
    <desc>Created with Sketch.</desc>
    <defs></defs>
    <g id="Page-1" stroke="none" stroke-width="1" fill="none" fill-rule="evenodd">
        <g id="Group" fill-rule="nonzero" fill="#000000">
            <g id="Shape">
                <path d="M73.643,144.731 C35.256,144.731 4.026,113.501 4.026,75.114 C4.026,36.727 35.256,5.499 73.643,5.499 C112.028,5.499 143.256,36.728 143.256,75.114 C143.256,113.5 112.027,144.731 73.643,144.731 Z M73.643,7.499 C36.36,7.499 6.026,37.831 6.026,75.114 C6.026,112.399 36.36,142.731 73.643,142.731 C110.924,142.731 141.256,112.399 141.256,75.114 C141.256,37.831 110.924,7.499 73.643,7.499 Z"></path>
                <path d="M69.141,138.354 C31.03,138.354 0.024,107.348 0.024,69.237 C0.024,31.128 31.03,0.122 69.141,0.122 C107.248,0.122 138.25,31.128 138.25,69.237 C138.25,107.349 107.248,138.354 69.141,138.354 Z M69.141,1.122 C31.58,1.122 1.024,31.679 1.024,69.237 C1.024,106.798 31.581,137.354 69.141,137.354 C106.696,137.354 137.25,106.797 137.25,69.237 C137.25,31.679 106.695,1.122 69.141,1.122 Z"></path>
                <g transform="translate(40.000000, 22.000000)">
                    <path d="M26.805,50.712 L32.522,53.2 L32.952,53.395 C41.263,57.188 49.11,60.772 49.11,70.75 L49.11,71.25 L51.643,71.25 L51.643,70.75 C51.643,59.141 42.674,55.047 33.995,51.086 L27.835,48.398 C17.448,43.677 8.128,38.373 8.128,25.486 C8.128,12.558 18.894,2.81 33.171,2.81 C43.134,2.81 51.589,7.886 56.372,16.734 L56.61,17.173 L58.839,15.97 L58.601,15.531 C53.361,5.836 44.093,0.277 33.171,0.277 C17.45,0.277 5.595,11.115 5.595,25.486 C5.594,39.87 16.068,45.833 26.805,50.712 Z"></path>
                    <path d="M38.797,42.159 L32.508,39.391 C26.313,36.598 18.604,33.12 18.604,25.86 L18.604,25.36 L16.071,25.36 L16.071,25.86 C16.071,34.755 24.967,38.768 31.471,41.702 L37.776,44.477 C49.272,49.522 59.59,55.254 59.59,69.754 C59.59,85.336 47.164,97.541 31.301,97.541 C17.158,97.541 6.143,88.393 3.237,74.234 L3.137,73.744 L0.655,74.254 L0.757,74.744 C3.915,90.131 15.903,100.074 31.302,100.074 C48.585,100.074 62.124,86.756 62.124,69.754 C62.123,53.741 50.6,47.341 38.797,42.159 Z"></path>
                </g>
            </g>
            <g transform="translate(8.000000, 160.000000)" id="Shape">
                <path d="M9.418,4.127 C8.592,2.815 7.428,1.965 5.703,1.965 C3.738,1.965 2.256,3.543 2.256,5.461 C2.256,7.379 4.078,8.18 5.559,8.885 L9.055,10.705 C10.438,11.58 11.143,12.695 11.143,14.348 C11.143,17.381 8.375,19.664 5.413,19.664 C2.864,19.664 0.874,18.086 0.024,15.73 L1.044,15.269 C1.821,17.212 3.253,18.57 5.462,18.57 C7.866,18.57 9.978,16.677 9.978,14.25 C9.978,12.186 7.867,11.312 6.289,10.535 L2.986,8.787 C1.773,8.035 1.091,6.967 1.091,5.51 C1.091,2.791 3.034,0.871 5.777,0.871 C7.623,0.871 9.371,1.867 10.246,3.445 L9.418,4.127 Z"></path>
                <polygon points="15.318 19.42 14.152 19.42 14.152 1.115 15.318 1.115"></polygon>
                <polygon points="20.416 18.328 25.078 18.328 25.078 19.42 19.252 19.42 19.252 1.115 20.416 1.115 20.416 18.328"></polygon>
                <polygon points="37.047 1.115 38.6 1.115 29.643 9.927 39.161 19.419 37.63 19.419 28.843 10.681 28.357 11.165 28.357 19.419 27.191 19.419 27.191 1.114 28.357 1.114 28.357 9.661"></polygon>
                <polygon points="42.17 2.209 42.17 8.859 49.551 8.859 49.551 9.953 42.17 9.953 42.17 18.328 49.744 18.328 49.744 19.42 41.004 19.42 41.004 1.115 49.744 1.115 49.744 2.209 42.17 2.209"></polygon>
                <path d="M52.84,19.42 L52.84,1.115 L56.506,1.115 C57.891,1.115 59.201,1.213 60.293,2.183 C61.41,3.156 61.822,4.513 61.822,5.97 C61.822,7.646 61.168,8.884 59.711,9.71 C61.969,10.169 63.498,11.989 63.498,14.321 C63.498,15.801 62.939,17.137 61.799,18.11 C60.512,19.202 59.153,19.419 57.526,19.419 L52.84,19.419 L52.84,19.42 Z M54.004,9.418 L56.02,9.418 C57.258,9.418 58.254,9.492 59.297,8.738 C60.342,7.986 60.658,7.064 60.658,5.8 C60.658,4.611 60.195,3.445 59.152,2.79 C58.228,2.208 57.088,2.208 56.019,2.208 L54.003,2.208 L54.003,9.418 L54.004,9.418 Z M54.004,18.328 L56.797,18.328 C58.084,18.328 59.418,18.377 60.535,17.623 C61.652,16.871 62.332,15.73 62.332,14.371 C62.332,13.035 61.678,11.701 60.437,11.094 C59.322,10.535 57.792,10.512 56.578,10.512 L54.004,10.512 L54.004,18.328 L54.004,18.328 Z"></path>
                <polygon points="67.723 18.328 72.383 18.328 72.383 19.42 66.557 19.42 66.557 1.115 67.723 1.115"></polygon>
                <path d="M92.389,10.268 C92.389,15.416 88.043,19.664 82.897,19.664 C77.751,19.664 73.405,15.416 73.405,10.268 C73.405,5.122 77.725,0.872 82.897,0.872 C88.043,0.871 92.389,5.121 92.389,10.268 Z M74.568,10.268 C74.568,14.784 78.332,18.571 82.896,18.571 C87.435,18.571 91.222,14.76 91.222,10.268 C91.222,5.752 87.435,1.965 82.896,1.965 C78.332,1.965 74.568,5.752 74.568,10.268 Z"></path>
                <path d="M112.395,10.607 C112.444,12.914 112.104,14.929 110.477,16.701 C108.729,18.596 106.106,19.664 103.532,19.664 C98.46,19.664 94.137,15.391 94.137,10.342 C94.137,5.098 98.434,0.871 103.678,0.871 C107.004,0.871 109.699,2.523 111.617,5.146 L110.67,5.898 C109.043,3.47 106.568,1.964 103.606,1.964 C99.139,1.964 95.303,5.874 95.303,10.267 C95.303,14.783 99.041,18.57 103.606,18.57 C105.573,18.57 107.491,17.769 108.997,16.556 C110.573,15.22 111.157,13.691 111.229,11.701 L104.674,11.701 L104.674,10.607 L112.395,10.607 L112.395,10.607 Z"></path>
                <path d="M123.707,4.127 C122.883,2.815 121.717,1.965 119.992,1.965 C118.027,1.965 116.545,3.543 116.545,5.461 C116.545,7.379 118.367,8.18 119.848,8.885 L123.344,10.705 C124.727,11.58 125.432,12.695 125.432,14.348 C125.432,17.381 122.664,19.664 119.703,19.664 C117.152,19.664 115.162,18.086 114.312,15.73 L115.332,15.269 C116.109,17.212 117.541,18.57 119.752,18.57 C122.154,18.57 124.266,16.677 124.266,14.25 C124.266,12.186 122.155,11.312 120.577,10.535 L117.274,8.787 C116.061,8.035 115.381,6.967 115.381,5.51 C115.381,2.791 117.322,0.871 120.067,0.871 C121.913,0.871 123.659,1.867 124.534,3.445 L123.707,4.127 Z"></path>
            </g>
        </g>
    </g>
</svg>