<?xml version="1.0" encoding="UTF-8" standalone="no"?>
<svg width="397px" height="85px" viewBox="0 0 397 85" version="1.1" xmlns="http://www.w3.org/2000/svg" xmlns:xlink="http://www.w3.org/1999/xlink">
    <!-- Generator: Sketch 42 (36781) - http://www.bohemiancoding.com/sketch -->
    <title>Group</title>
    <desc>Created with Sketch.</desc>
    <defs></defs>
    <g id="Page-1" stroke="none" stroke-width="1" fill="none" fill-rule="evenodd">
        <g id="Group" fill-rule="nonzero" fill="#000000">
            <g id="Shape">
                <path d="M44.007,84.986 C21.451,84.986 3.101,66.636 3.101,44.08 C3.101,21.525 21.452,3.176 44.007,3.176 C66.562,3.176 84.911,21.526 84.911,44.08 C84.911,66.637 66.562,84.986 44.007,84.986 Z M44.007,4.35 C22.1,4.35 4.276,22.174 4.276,44.08 C4.276,65.988 22.1,83.81 44.007,83.81 C65.913,83.81 83.736,65.988 83.736,44.08 C83.735,22.174 65.913,4.35 44.007,4.35 Z"></path>
                <path d="M41.361,81.24 C18.967,81.24 0.749,63.021 0.749,40.627 C0.749,18.234 18.968,0.016 41.361,0.016 C63.753,0.016 81.969,18.235 81.969,40.627 C81.97,63.021 63.753,81.24 41.361,81.24 Z M41.361,0.604 C19.291,0.604 1.336,18.559 1.336,40.627 C1.336,62.697 19.291,80.652 41.361,80.652 C63.427,80.652 81.382,62.697 81.382,40.627 C81.382,18.559 63.428,0.604 41.361,0.604 Z"></path>
                <g transform="translate(24.000000, 13.000000)">
                    <path d="M15.988,29.668 L19.347,31.131 L19.6,31.246 C24.483,33.475 29.094,35.58 29.094,41.443 L29.094,41.736 L30.582,41.736 L30.582,41.443 C30.582,34.621 25.312,32.216 20.212,29.888 L16.593,28.31 C10.489,25.535 5.013,22.417 5.013,14.847 C5.013,7.249 11.339,1.523 19.728,1.523 C25.582,1.523 30.55,4.505 33.361,9.705 L33.502,9.963 L34.812,9.256 L34.671,8.998 C31.592,3.301 26.147,0.035 19.729,0.035 C10.492,0.035 3.526,6.402 3.526,14.847 C3.525,23.299 9.68,26.803 15.988,29.668 Z"></path>
                    <path d="M23.035,24.643 L19.34,23.018 C15.699,21.375 11.17,19.332 11.17,15.067 L11.17,14.772 L9.682,14.772 L9.682,15.067 C9.682,20.294 14.91,22.651 18.731,24.376 L22.435,26.007 C29.19,28.97 35.253,32.339 35.253,40.859 C35.253,50.015 27.951,57.187 18.631,57.187 C10.32,57.187 3.848,51.812 2.14,43.492 L2.082,43.205 L0.623,43.504 L0.683,43.793 C2.538,52.834 9.583,58.676 18.631,58.676 C28.786,58.676 36.741,50.85 36.741,40.86 C36.741,31.449 29.971,27.688 23.035,24.643 Z"></path>
                </g>
            </g>
            <g transform="translate(103.000000, 20.000000)" id="Shape">
                <path d="M21.489,7.939 C19.686,5.058 17.141,3.189 13.36,3.177 C9.053,3.165 5.797,6.615 5.784,10.818 C5.772,15.021 9.759,16.789 12.999,18.343 L20.651,22.355 C23.678,24.281 25.213,26.728 25.204,30.349 C25.185,36.997 19.105,41.984 12.614,41.964 C7.028,41.948 2.675,38.478 0.827,33.312 L3.064,32.306 C4.756,36.572 7.885,39.554 12.728,39.568 C17.995,39.582 22.634,35.449 22.649,30.127 C22.661,25.604 18.039,23.678 14.587,21.967 L7.36,18.113 C4.705,16.459 3.219,14.113 3.229,10.92 C3.245,4.961 7.514,0.764 13.526,0.781 C17.571,0.791 21.396,2.986 23.301,6.451 L21.489,7.939 Z"></path>
                <polygon points="34.327 41.49 31.77 41.484 31.883 1.369 34.438 1.377"></polygon>
                <polygon points="45.505 39.129 55.72 39.158 55.714 41.551 42.944 41.516 43.057 1.401 45.61 1.407"></polygon>
                <polygon points="82.056 1.51 85.461 1.518 65.774 20.778 86.574 41.639 83.22 41.629 64.014 22.424 62.948 23.483 62.898 41.573 60.342 41.565 60.454 1.45 63.01 1.456 62.957 20.186"></polygon>
                <polygon points="93.277 3.938 93.236 18.512 109.411 18.559 109.404 20.955 93.231 20.91 93.178 39.265 109.778 39.308 109.771 41.703 90.617 41.648 90.729 1.533 109.884 1.586 109.876 3.984"></polygon>
                <path d="M134.087,41.77 L134.202,1.655 L142.237,1.678 C145.267,1.686 148.139,1.908 150.528,4.043 C152.967,6.182 153.862,9.158 153.853,12.352 C153.844,16.026 152.402,18.735 149.206,20.536 C154.148,21.557 157.489,25.556 157.475,30.665 C157.466,33.911 156.236,36.833 153.73,38.96 C150.901,41.343 147.92,41.81 144.356,41.802 L134.087,41.77 Z M136.702,19.859 L141.119,19.873 C143.833,19.877 146.012,20.049 148.307,18.4 C150.597,16.761 151.297,14.742 151.305,11.972 C151.312,9.367 150.305,6.808 148.025,5.365 C146.004,4.086 143.504,4.08 141.164,4.074 L136.746,4.06 L136.702,19.859 Z M136.646,39.387 L142.767,39.403 C145.585,39.411 148.511,39.526 150.963,37.882 C153.416,36.241 154.914,33.745 154.921,30.767 C154.93,27.839 153.502,24.912 150.787,23.572 C148.348,22.342 144.996,22.281 142.334,22.273 L136.692,22.257 L136.646,39.387 Z"></path>
                <polygon points="166.71 39.469 176.925 39.498 176.916 41.891 164.148 41.856 164.259 1.741 166.815 1.747"></polygon>
                <path d="M220.817,21.957 C220.785,33.24 211.234,42.523 199.955,42.492 C188.677,42.459 179.179,33.125 179.21,21.842 C179.24,10.563 188.736,1.274 200.07,1.307 C211.35,1.338 220.85,10.678 220.817,21.957 Z M181.764,21.846 C181.737,31.744 189.959,40.067 199.962,40.094 C209.912,40.121 218.233,31.795 218.262,21.951 C218.291,12.055 210.012,3.73 200.065,3.703 C190.061,3.676 181.791,11.951 181.764,21.846 Z"></path>
                <path d="M264.657,22.826 C264.749,27.879 263.992,32.297 260.418,36.168 C256.573,40.309 250.821,42.633 245.18,42.617 C234.061,42.588 224.618,33.195 224.647,22.129 C224.681,10.637 234.124,1.4 245.617,1.432 C252.906,1.453 258.804,5.092 262.992,10.852 L260.911,12.493 C257.358,7.165 251.943,3.848 245.45,3.831 C235.661,3.804 227.233,12.349 227.205,21.974 C227.178,31.872 235.347,40.195 245.348,40.222 C249.659,40.236 253.867,38.492 257.175,35.843 C260.637,32.925 261.926,29.577 262.098,25.214 L247.732,25.173 L247.741,22.777 L264.657,22.826 Z"></path>
                <path d="M289.49,8.691 C287.689,5.81 285.141,3.939 281.361,3.929 C277.055,3.919 273.797,7.367 273.785,11.57 C273.772,15.773 277.762,17.541 281.002,19.095 L288.651,23.105 C291.677,25.031 293.215,27.48 293.205,31.101 C293.188,37.749 287.105,42.736 280.616,42.716 C275.029,42.7 270.678,39.232 268.829,34.064 L271.066,33.06 C272.757,37.322 275.887,40.306 280.731,40.32 C285.997,40.336 290.636,36.201 290.649,30.881 C290.663,26.358 286.04,24.432 282.587,22.717 L275.36,18.867 C272.707,17.209 271.223,14.863 271.234,11.672 C271.248,5.713 275.517,1.518 281.528,1.535 C285.573,1.545 289.395,3.74 291.304,7.203 L289.49,8.691 Z"></path>
            </g>
        </g>
    </g>
</svg>