<?xml version="1.0" encoding="UTF-8" standalone="no"?>
<svg width="395px" height="86px" viewBox="0 0 395 86" version="1.1" xmlns="http://www.w3.org/2000/svg" xmlns:xlink="http://www.w3.org/1999/xlink">
    <!-- Generator: Sketch 42 (36781) - http://www.bohemiancoding.com/sketch -->
    <title>Group</title>
    <desc>Created with Sketch.</desc>
    <defs></defs>
    <g id="Page-1" stroke="none" stroke-width="1" fill="none" fill-rule="evenodd">
        <g id="Group" fill-rule="nonzero">
            <g id="Shape">
                <path d="M43.321,85.056 C20.764,85.056 2.414,66.704 2.414,44.15 C2.414,21.593 20.765,3.244 43.321,3.244 C65.875,3.244 84.224,21.594 84.224,44.15 C84.225,66.704 65.875,85.056 43.321,85.056 Z M43.321,4.419 C21.413,4.419 3.59,22.241 3.59,44.149 C3.59,66.057 21.413,83.879 43.321,83.879 C65.226,83.879 83.05,66.057 83.05,44.149 C83.05,22.241 65.227,4.419 43.321,4.419 Z" fill="#E46980"></path>
                <path d="M40.676,81.31 C18.281,81.31 0.063,63.091 0.063,40.697 C0.063,18.303 18.282,0.086 40.676,0.086 C63.068,0.086 81.283,18.303 81.283,40.697 C81.283,63.091 63.067,81.31 40.676,81.31 Z M40.676,0.673 C18.606,0.673 0.651,18.626 0.651,40.696 C0.651,62.766 18.606,80.721 40.676,80.721 C62.742,80.721 80.697,62.766 80.697,40.696 C80.697,18.626 62.742,0.673 40.676,0.673 Z" fill="#02B2B3"></path>
                <g transform="translate(23.000000, 13.000000)">
                    <path d="M16.303,29.737 L19.662,31.2 L19.914,31.315 C24.798,33.542 29.409,35.649 29.409,41.512 L29.409,41.805 L30.897,41.805 L30.897,41.512 C30.897,34.69 25.627,32.283 20.527,29.957 L16.907,28.377 C10.804,25.604 5.328,22.486 5.328,14.914 C5.328,7.318 11.654,1.592 20.043,1.592 C25.897,1.592 30.865,4.572 33.676,9.772 L33.816,10.032 L35.126,9.323 L34.986,9.065 C31.907,3.37 26.462,0.102 20.044,0.102 C10.807,0.102 3.841,6.471 3.841,14.914 C3.84,23.366 9.994,26.87 16.303,29.737 Z" fill="#E46980"></path>
                    <path d="M23.35,24.712 L19.655,23.087 C16.014,21.444 11.485,19.401 11.485,15.136 L11.485,14.841 L9.996,14.841 L9.996,15.136 C9.996,20.363 15.224,22.72 19.046,24.445 L22.75,26.076 C29.505,29.039 35.568,32.408 35.568,40.928 C35.568,50.084 28.266,57.256 18.945,57.256 C10.635,57.256 4.163,51.879 2.455,43.561 L2.396,43.272 L0.938,43.573 L0.998,43.86 C2.853,52.901 9.897,58.745 18.945,58.745 C29.101,58.745 37.056,50.919 37.056,40.929 C37.056,31.519 30.284,27.757 23.35,24.712 Z" fill="#02B2B3"></path>
                </g>
            </g>
            <g transform="translate(102.000000, 21.000000)" id="Shape" fill="#E46980">
                <path d="M21.176,7.759 C19.373,4.876 16.828,3.007 13.047,2.997 C8.74,2.983 5.484,6.435 5.471,10.638 C5.459,14.841 9.446,16.607 12.686,18.161 L20.338,22.173 C23.365,24.101 24.9,26.548 24.891,30.169 C24.872,36.815 18.792,41.802 12.301,41.782 C6.715,41.768 2.362,38.296 0.514,33.132 L2.751,32.124 C4.443,36.39 7.572,39.374 12.415,39.388 C17.682,39.402 22.321,35.267 22.336,29.947 C22.348,25.424 17.726,23.496 14.274,21.785 L7.047,17.931 C4.392,16.279 2.906,13.931 2.916,10.74 C2.932,4.779 7.201,0.584 13.213,0.599 C17.258,0.611 21.083,2.804 22.988,6.269 L21.176,7.759 Z"></path>
                <polygon points="34.014 41.31 31.457 41.302 31.57 1.187 34.125 1.197"></polygon>
                <polygon points="45.191 38.948 55.406 38.977 55.4 41.37 42.63 41.335 42.743 1.218 45.296 1.226"></polygon>
                <polygon points="81.742 1.327 85.147 1.337 65.46 20.595 86.26 41.456 82.906 41.448 63.7 22.241 62.634 23.3 62.584 41.39 60.028 41.382 60.14 1.269 62.696 1.275 62.643 20.005"></polygon>
                <polygon points="92.964 3.757 92.923 18.331 109.098 18.376 109.091 20.774 92.918 20.727 92.865 39.082 109.465 39.127 109.458 41.52 90.304 41.465 90.416 1.35 109.571 1.405 109.563 3.801"></polygon>
                <path d="M133.773,41.589 L133.888,1.474 L141.923,1.497 C144.953,1.505 147.825,1.727 150.214,3.862 C152.653,5.999 153.548,8.977 153.539,12.171 C153.53,15.843 152.088,18.552 148.892,20.353 C153.834,21.374 157.175,25.373 157.161,30.484 C157.152,33.728 155.922,36.652 153.416,38.777 C150.587,41.162 147.606,41.627 144.042,41.619 L133.773,41.589 Z M136.389,19.679 L140.806,19.691 C143.52,19.697 145.699,19.867 147.994,18.22 C150.284,16.579 150.984,14.56 150.992,11.79 C150.999,9.185 149.992,6.626 147.712,5.185 C145.691,3.906 143.191,3.898 140.851,3.892 L136.433,3.88 L136.389,19.679 Z M136.333,39.204 L142.454,39.222 C145.272,39.228 148.198,39.343 150.65,37.699 C153.103,36.058 154.601,33.564 154.608,30.584 C154.617,27.656 153.189,24.729 150.474,23.391 C148.035,22.161 144.683,22.1 142.021,22.09 L136.379,22.076 L136.333,39.204 Z"></path>
                <polygon points="166.396 39.288 176.611 39.315 176.602 41.71 163.834 41.675 163.945 1.56 166.501 1.566"></polygon>
                <path d="M220.504,21.774 C220.472,33.059 210.921,42.342 199.642,42.311 C188.364,42.278 178.866,32.942 178.897,21.659 C178.927,10.38 188.423,1.093 199.757,1.126 C211.036,1.157 220.536,10.497 220.504,21.774 Z M181.45,21.665 C181.423,31.561 189.645,39.886 199.648,39.913 C209.598,39.94 217.919,31.614 217.948,21.768 C217.977,11.872 209.698,3.549 199.751,3.522 C189.747,3.493 181.478,11.769 181.45,21.665 Z"></path>
                <path d="M264.344,22.644 C264.436,27.699 263.679,32.115 260.105,35.986 C256.26,40.127 250.508,42.451 244.867,42.437 C233.748,42.406 224.305,33.013 224.334,21.949 C224.368,10.457 233.811,1.219 245.304,1.252 C252.593,1.273 258.491,4.91 262.679,10.672 L260.598,12.313 C257.045,6.985 251.63,3.668 245.137,3.649 C235.348,3.622 226.92,12.167 226.892,21.794 C226.865,31.69 235.034,40.013 245.035,40.042 C249.346,40.054 253.554,38.31 256.862,35.663 C260.324,32.743 261.613,29.397 261.785,25.034 L247.419,24.993 L247.428,22.597 L264.344,22.644 Z"></path>
                <path d="M289.177,8.511 C287.376,5.628 284.828,3.759 281.048,3.749 C276.742,3.737 273.484,7.185 273.472,11.39 C273.459,15.591 277.449,17.361 280.689,18.915 L288.338,22.925 C291.364,24.851 292.902,27.298 292.892,30.921 C292.875,37.567 286.792,42.554 280.303,42.534 C274.716,42.518 270.365,39.05 268.516,33.882 L270.753,32.878 C272.444,37.142 275.574,40.124 280.418,40.14 C285.684,40.156 290.323,36.019 290.336,30.699 C290.35,26.176 285.727,24.25 282.274,22.535 L275.047,18.685 C272.394,17.029 270.91,14.681 270.921,11.49 C270.935,5.531 275.204,1.338 281.215,1.353 C285.26,1.365 289.082,3.558 290.991,7.021 L289.177,8.511 Z"></path>
            </g>
        </g>
    </g>
</svg>