<?xml version="1.0" encoding="UTF-8" standalone="no"?>
<svg width="43px" height="42px" viewBox="0 0 43 42" version="1.1" xmlns="http://www.w3.org/2000/svg" xmlns:xlink="http://www.w3.org/1999/xlink">
    <!-- Generator: Sketch 42 (36781) - http://www.bohemiancoding.com/sketch -->
    <title>Shape</title>
    <desc>Created with Sketch.</desc>
    <defs></defs>
    <g id="Page-1" stroke="none" stroke-width="1" fill="none" fill-rule="evenodd">
        <g id="Icons-font-awesome" transform="translate(-95.000000, -239.000000)" fill-rule="nonzero" fill="#000000">
            <g id="Group">
                <path d="M134.519,249.783 C136.411,252.96 137.361,256.428 137.361,260.186 C137.361,263.951 136.411,267.418 134.519,270.594 C132.624,273.771 130.055,276.285 126.816,278.136 C123.572,279.99 120.031,280.919 116.187,280.919 C112.348,280.919 108.805,279.989 105.562,278.136 C102.318,276.285 99.749,273.771 97.856,270.594 C95.96,267.418 95.017,263.95 95.017,260.186 C95.017,256.427 95.96,252.959 97.856,249.783 C99.749,246.608 102.318,244.092 105.562,242.238 C108.805,240.388 112.348,239.459 116.187,239.459 C120.031,239.459 123.572,240.389 126.816,242.238 C130.055,244.092 132.624,246.608 134.519,249.783 Z M130.438,260.187 C130.438,259.704 130.271,259.298 129.943,258.975 L127.435,256.519 L117.456,246.748 C117.123,246.422 116.713,246.26 116.214,246.26 C115.72,246.26 115.306,246.422 114.977,246.748 L112.467,249.204 C112.135,249.528 111.97,249.933 111.97,250.418 C111.97,250.905 112.135,251.308 112.467,251.634 L117.678,256.736 L103.837,256.736 C103.358,256.736 102.944,256.904 102.6,257.248 C102.248,257.59 102.074,257.995 102.074,258.464 L102.074,261.917 C102.074,262.386 102.249,262.79 102.6,263.133 C102.945,263.475 103.359,263.645 103.837,263.645 L117.678,263.645 L112.467,268.747 C112.118,269.09 111.941,269.494 111.941,269.963 C111.941,270.432 112.119,270.836 112.467,271.176 L114.977,273.633 C115.306,273.959 115.72,274.121 116.214,274.121 C116.713,274.121 117.123,273.959 117.456,273.633 L127.435,263.862 L129.943,261.407 C130.271,261.081 130.438,260.676 130.438,260.187 Z" id="Shape"></path>
            </g>
        </g>
    </g>
</svg>