<?xml version="1.0" encoding="UTF-8" standalone="no"?>
<svg width="43px" height="42px" viewBox="0 0 43 42" version="1.1" xmlns="http://www.w3.org/2000/svg" xmlns:xlink="http://www.w3.org/1999/xlink">
    <!-- Generator: Sketch 42 (36781) - http://www.bohemiancoding.com/sketch -->
    <title>Shape</title>
    <desc>Created with Sketch.</desc>
    <defs></defs>
    <g id="Page-1" stroke="none" stroke-width="1" fill="none" fill-rule="evenodd">
        <g id="Icons-font-awesome" transform="translate(-563.000000, -239.000000)" fill-rule="nonzero" fill="#04B2B2">
            <g id="Group">
                <path d="M603.019,249.854 C604.911,253.031 605.861,256.499 605.861,260.257 C605.861,264.022 604.911,267.489 603.019,270.665 C601.124,273.842 598.555,276.356 595.316,278.207 C592.072,280.061 588.531,280.99 584.687,280.99 C580.848,280.99 577.305,280.06 574.062,278.207 C570.818,276.356 568.249,273.842 566.356,270.665 C564.46,267.489 563.517,264.021 563.517,260.257 C563.517,256.498 564.46,253.03 566.356,249.854 C568.249,246.679 570.818,244.163 574.062,242.309 C577.305,240.459 580.848,239.53 584.687,239.53 C588.531,239.53 592.072,240.46 595.316,242.309 C598.555,244.162 601.124,246.679 603.019,249.854 Z M598.938,260.257 C598.938,259.774 598.771,259.368 598.443,259.045 L595.935,256.589 L585.956,246.818 C585.623,246.492 585.213,246.33 584.714,246.33 C584.22,246.33 583.806,246.492 583.477,246.818 L580.967,249.274 C580.635,249.598 580.47,250.003 580.47,250.488 C580.47,250.975 580.635,251.378 580.967,251.704 L586.178,256.806 L572.337,256.806 C571.858,256.806 571.444,256.974 571.1,257.318 C570.748,257.66 570.574,258.065 570.574,258.534 L570.574,261.987 C570.574,262.456 570.749,262.86 571.1,263.203 C571.445,263.545 571.859,263.715 572.337,263.715 L586.178,263.715 L580.967,268.817 C580.618,269.16 580.441,269.564 580.441,270.033 C580.441,270.502 580.619,270.906 580.967,271.246 L583.477,273.703 C583.806,274.029 584.22,274.191 584.714,274.191 C585.213,274.191 585.623,274.029 585.956,273.703 L595.935,263.932 L598.443,261.477 C598.771,261.151 598.938,260.746 598.938,260.257 Z" id="Shape"></path>
            </g>
        </g>
    </g>
</svg>