<?xml version="1.0" encoding="UTF-8" standalone="no"?>
<svg width="43px" height="44px" viewBox="0 0 43 44" version="1.1" xmlns="http://www.w3.org/2000/svg" xmlns:xlink="http://www.w3.org/1999/xlink">
    <!-- Generator: Sketch 42 (36781) - http://www.bohemiancoding.com/sketch -->
    <title>Shape</title>
    <desc>Created with Sketch.</desc>
    <defs></defs>
    <g id="Page-1" stroke="none" stroke-width="1" fill="none" fill-rule="evenodd">
        <g id="Icons-font-awesome" transform="translate(-321.000000, -81.000000)" fill-rule="nonzero" fill="#E4687F">
            <g id="Group">
                <path d="M355.976,81.998 C358.175,81.998 360.05,82.778 361.61,84.339 C363.171,85.899 363.951,87.777 363.951,89.973 L363.951,116.552 C363.951,118.746 363.171,120.627 361.61,122.187 C360.05,123.742 358.175,124.522 355.976,124.522 L335.907,124.522 C337.474,122.274 338.471,120.337 338.897,118.708 C339.063,118.084 339.552,116.156 340.367,112.923 C340.755,113.646 341.432,114.261 342.401,114.778 C343.37,115.297 344.406,115.555 345.51,115.555 C348.854,115.555 351.582,114.193 353.695,111.469 C355.806,108.746 356.862,105.302 356.862,101.131 C356.862,99.579 356.543,98.077 355.894,96.631 C355.249,95.181 354.359,93.902 353.224,92.783 C352.09,91.669 350.681,90.771 348.999,90.098 C347.323,89.424 345.501,89.085 343.548,89.085 C341.625,89.085 339.832,89.347 338.161,89.874 C336.489,90.402 335.08,91.104 333.927,91.992 C332.774,92.879 331.781,93.891 330.952,95.025 C330.117,96.158 329.509,97.341 329.112,98.566 C328.713,99.796 328.515,101.018 328.515,102.234 C328.515,104.118 328.878,105.779 329.609,107.218 C330.336,108.657 331.412,109.675 332.832,110.266 C333.074,110.359 333.291,110.359 333.485,110.266 C333.679,110.174 333.809,109.995 333.882,109.738 C334.068,108.925 334.206,108.362 334.299,108.05 C334.41,107.627 334.309,107.239 333.993,106.885 C333.073,105.743 332.612,104.361 332.612,102.733 C332.612,99.967 333.566,97.599 335.476,95.636 C337.384,93.668 339.88,92.684 342.966,92.684 C345.711,92.684 347.86,93.431 349.4,94.929 C350.94,96.422 351.71,98.359 351.71,100.742 C351.71,103.843 351.091,106.483 349.847,108.658 C348.601,110.84 346.996,111.924 345.04,111.924 C343.935,111.924 343.04,111.528 342.355,110.723 C341.673,109.919 341.459,108.964 341.72,107.855 C341.866,107.231 342.107,106.376 342.453,105.295 C342.79,104.217 343.067,103.274 343.27,102.47 C343.47,101.667 343.571,100.98 343.571,100.409 C343.571,99.507 343.328,98.751 342.839,98.155 C342.349,97.553 341.653,97.255 340.752,97.255 C339.623,97.255 338.669,97.776 337.884,98.818 C337.098,99.859 336.704,101.15 336.704,102.678 C336.704,104.007 336.928,105.125 337.369,106.027 L334.656,117.49 C334.216,119.337 334.151,121.681 334.464,124.52 L329.4,124.52 C327.201,124.52 325.326,123.74 323.766,122.185 C322.205,120.625 321.425,118.745 321.425,116.55 L321.425,89.971 C321.425,87.776 322.205,85.897 323.766,84.337 C325.326,82.776 327.201,81.996 329.4,81.996 L355.976,81.996 L355.976,81.998 Z" id="Shape"></path>
            </g>
        </g>
    </g>
</svg>