<?xml version="1.0" encoding="UTF-8" standalone="no"?>
<svg width="43px" height="44px" viewBox="0 0 43 44" version="1.1" xmlns="http://www.w3.org/2000/svg" xmlns:xlink="http://www.w3.org/1999/xlink">
    <!-- Generator: Sketch 42 (36781) - http://www.bohemiancoding.com/sketch -->
    <title>Shape</title>
    <desc>Created with Sketch.</desc>
    <defs></defs>
    <g id="Page-1" stroke="none" stroke-width="1" fill="none" fill-rule="evenodd">
        <g id="Icons-font-awesome" transform="translate(-563.000000, -81.000000)" fill-rule="nonzero" fill="#04B2B2">
            <g id="Group">
                <path d="M597.976,81.998 C600.175,81.998 602.05,82.778 603.61,84.339 C605.171,85.899 605.951,87.777 605.951,89.973 L605.951,116.552 C605.951,118.746 605.171,120.627 603.61,122.187 C602.05,123.742 600.175,124.522 597.976,124.522 L577.907,124.522 C579.474,122.274 580.471,120.337 580.897,118.708 C581.063,118.084 581.552,116.156 582.367,112.923 C582.755,113.646 583.432,114.261 584.401,114.778 C585.37,115.297 586.406,115.555 587.51,115.555 C590.854,115.555 593.582,114.193 595.695,111.469 C597.806,108.746 598.862,105.302 598.862,101.131 C598.862,99.579 598.543,98.077 597.894,96.631 C597.249,95.181 596.359,93.902 595.224,92.783 C594.09,91.669 592.681,90.771 590.999,90.098 C589.323,89.424 587.501,89.085 585.548,89.085 C583.625,89.085 581.832,89.347 580.161,89.874 C578.489,90.402 577.08,91.104 575.927,91.992 C574.774,92.879 573.781,93.891 572.952,95.025 C572.117,96.158 571.509,97.341 571.112,98.566 C570.713,99.796 570.515,101.018 570.515,102.234 C570.515,104.118 570.878,105.779 571.609,107.218 C572.336,108.657 573.412,109.675 574.832,110.266 C575.074,110.359 575.291,110.359 575.485,110.266 C575.679,110.174 575.809,109.995 575.882,109.738 C576.068,108.925 576.206,108.362 576.299,108.05 C576.41,107.627 576.309,107.239 575.993,106.885 C575.073,105.743 574.612,104.361 574.612,102.733 C574.612,99.967 575.566,97.599 577.476,95.636 C579.384,93.668 581.88,92.684 584.966,92.684 C587.711,92.684 589.86,93.431 591.4,94.929 C592.94,96.422 593.71,98.359 593.71,100.742 C593.71,103.843 593.091,106.483 591.847,108.658 C590.601,110.84 588.996,111.924 587.04,111.924 C585.935,111.924 585.04,111.528 584.355,110.723 C583.673,109.919 583.459,108.964 583.72,107.855 C583.866,107.231 584.107,106.376 584.453,105.295 C584.79,104.217 585.067,103.274 585.27,102.47 C585.47,101.667 585.571,100.98 585.571,100.409 C585.571,99.507 585.328,98.751 584.839,98.155 C584.349,97.553 583.653,97.255 582.752,97.255 C581.623,97.255 580.669,97.776 579.884,98.818 C579.098,99.859 578.704,101.15 578.704,102.678 C578.704,104.007 578.928,105.125 579.369,106.027 L576.656,117.49 C576.216,119.337 576.151,121.681 576.464,124.52 L571.4,124.52 C569.201,124.52 567.326,123.74 565.766,122.185 C564.205,120.625 563.425,118.745 563.425,116.55 L563.425,89.971 C563.425,87.776 564.205,85.897 565.766,84.337 C567.326,82.776 569.201,81.996 571.4,81.996 L597.976,81.996 L597.976,81.998 Z" id="Shape"></path>
            </g>
        </g>
    </g>
</svg>