<?xml version="1.0" encoding="UTF-8" standalone="no"?>
<svg width="44px" height="44px" viewBox="0 0 44 44" version="1.1" xmlns="http://www.w3.org/2000/svg" xmlns:xlink="http://www.w3.org/1999/xlink">
    <!-- Generator: Sketch 42 (36781) - http://www.bohemiancoding.com/sketch -->
    <title>Shape</title>
    <desc>Created with Sketch.</desc>
    <defs></defs>
    <g id="Page-1" stroke="none" stroke-width="1" fill="none" fill-rule="evenodd">
        <g id="Icons-font-awesome" transform="translate(-94.000000, -81.000000)" fill-rule="nonzero" fill="#000000">
            <g id="Group">
                <path d="M129.476,81.998 C131.675,81.998 133.55,82.778 135.11,84.339 C136.671,85.899 137.451,87.777 137.451,89.973 L137.451,116.552 C137.451,118.746 136.671,120.627 135.11,122.187 C133.55,123.742 131.675,124.522 129.476,124.522 L109.406,124.522 C110.973,122.274 111.97,120.337 112.396,118.708 C112.562,118.084 113.051,116.156 113.866,112.923 C114.254,113.646 114.931,114.261 115.9,114.778 C116.869,115.297 117.905,115.555 119.009,115.555 C122.353,115.555 125.081,114.193 127.194,111.469 C129.305,108.746 130.361,105.302 130.361,101.131 C130.361,99.579 130.042,98.077 129.393,96.631 C128.748,95.181 127.858,93.902 126.723,92.783 C125.589,91.669 124.18,90.771 122.498,90.098 C120.822,89.424 119,89.085 117.047,89.085 C115.124,89.085 113.331,89.347 111.66,89.874 C109.988,90.402 108.579,91.104 107.426,91.992 C106.273,92.879 105.28,93.891 104.451,95.025 C103.616,96.158 103.008,97.341 102.611,98.566 C102.212,99.796 102.014,101.018 102.014,102.234 C102.014,104.118 102.377,105.779 103.108,107.218 C103.835,108.657 104.911,109.675 106.331,110.266 C106.573,110.359 106.79,110.359 106.984,110.266 C107.178,110.174 107.308,109.995 107.381,109.738 C107.567,108.925 107.705,108.362 107.798,108.05 C107.909,107.627 107.808,107.239 107.492,106.885 C106.572,105.743 106.111,104.361 106.111,102.733 C106.111,99.967 107.065,97.599 108.975,95.636 C110.883,93.668 113.379,92.684 116.465,92.684 C119.21,92.684 121.359,93.431 122.899,94.929 C124.439,96.422 125.209,98.359 125.209,100.742 C125.209,103.843 124.59,106.483 123.346,108.658 C122.1,110.84 120.495,111.924 118.539,111.924 C117.434,111.924 116.539,111.528 115.854,110.723 C115.172,109.919 114.958,108.964 115.219,107.855 C115.365,107.231 115.606,106.376 115.952,105.295 C116.289,104.217 116.566,103.274 116.769,102.47 C116.969,101.667 117.07,100.98 117.07,100.409 C117.07,99.507 116.827,98.751 116.338,98.155 C115.848,97.553 115.152,97.255 114.251,97.255 C113.122,97.255 112.168,97.776 111.383,98.818 C110.597,99.859 110.203,101.15 110.203,102.678 C110.203,104.007 110.427,105.125 110.868,106.027 L108.155,117.49 C107.715,119.337 107.65,121.681 107.963,124.52 L102.901,124.52 C100.702,124.52 98.827,123.74 97.267,122.185 C95.706,120.625 94.926,118.745 94.926,116.55 L94.926,89.971 C94.926,87.776 95.706,85.897 97.267,84.337 C98.827,82.776 100.702,81.996 102.901,81.996 L129.476,81.996 L129.476,81.998 Z" id="Shape"></path>
            </g>
        </g>
    </g>
</svg>