<?xml version="1.0" encoding="UTF-8" standalone="no"?>
<svg width="44px" height="43px" viewBox="0 0 44 43" version="1.1" xmlns="http://www.w3.org/2000/svg" xmlns:xlink="http://www.w3.org/1999/xlink">
    <!-- Generator: Sketch 42 (36781) - http://www.bohemiancoding.com/sketch -->
    <title>Shape</title>
    <desc>Created with Sketch.</desc>
    <defs></defs>
    <g id="Page-1" stroke="none" stroke-width="1" fill="none" fill-rule="evenodd">
        <g id="Icons-font-awesome" transform="translate(-94.000000, -166.000000)" fill-rule="nonzero" fill="#000000">
            <g id="Group">
                <path d="M137.424,205.756 C137.424,206.638 137.101,207.403 136.456,208.052 C135.808,208.699 135.042,209.02 134.16,209.02 C133.24,209.02 132.472,208.7 131.858,208.052 L123.104,199.323 C120.059,201.434 116.665,202.487 112.919,202.487 C110.488,202.487 108.162,202.015 105.94,201.069 C103.718,200.129 101.804,198.851 100.197,197.243 C98.589,195.635 97.312,193.722 96.371,191.5 C95.425,189.277 94.952,186.95 94.952,184.52 C94.952,182.086 95.425,179.76 96.371,177.539 C97.312,175.319 98.589,173.402 100.197,171.795 C101.804,170.187 103.718,168.91 105.94,167.969 C108.163,167.023 110.489,166.55 112.919,166.55 C115.353,166.55 117.68,167.023 119.901,167.969 C122.121,168.91 124.037,170.187 125.645,171.795 C127.253,173.402 128.531,175.319 129.471,177.539 C130.417,179.761 130.889,182.087 130.889,184.52 C130.889,188.262 129.832,191.657 127.725,194.705 L136.481,203.46 C137.111,204.088 137.424,204.851 137.424,205.756 Z M121.001,192.597 C123.237,190.36 124.355,187.664 124.355,184.519 C124.355,181.372 123.237,178.676 121.001,176.439 C118.764,174.203 116.068,173.085 112.92,173.085 C109.775,173.085 107.08,174.203 104.843,176.439 C102.607,178.676 101.486,181.372 101.486,184.519 C101.486,187.665 102.607,190.36 104.843,192.597 C107.08,194.833 109.776,195.954 112.92,195.954 C116.068,195.954 118.764,194.833 121.001,192.597 Z" id="Shape"></path>
            </g>
        </g>
    </g>
</svg>