<?xml version="1.0" encoding="UTF-8" standalone="no"?>
<svg width="43px" height="43px" viewBox="0 0 43 43" version="1.1" xmlns="http://www.w3.org/2000/svg" xmlns:xlink="http://www.w3.org/1999/xlink">
    <!-- Generator: Sketch 42 (36781) - http://www.bohemiancoding.com/sketch -->
    <title>Shape</title>
    <desc>Created with Sketch.</desc>
    <defs></defs>
    <g id="Page-1" stroke="none" stroke-width="1" fill="none" fill-rule="evenodd">
        <g id="Icons-font-awesome" transform="translate(-321.000000, -166.000000)" fill-rule="nonzero" fill="#E4687F">
            <g id="Group">
                <path d="M363.925,205.756 C363.925,206.638 363.602,207.403 362.957,208.052 C362.309,208.699 361.543,209.02 360.661,209.02 C359.741,209.02 358.973,208.7 358.359,208.052 L349.605,199.323 C346.56,201.434 343.166,202.487 339.42,202.487 C336.989,202.487 334.663,202.015 332.441,201.069 C330.219,200.129 328.305,198.851 326.698,197.243 C325.09,195.635 323.813,193.722 322.872,191.5 C321.926,189.277 321.453,186.95 321.453,184.52 C321.453,182.086 321.926,179.76 322.872,177.539 C323.813,175.319 325.09,173.402 326.698,171.795 C328.305,170.187 330.219,168.91 332.441,167.969 C334.664,167.023 336.99,166.55 339.42,166.55 C341.854,166.55 344.181,167.023 346.402,167.969 C348.622,168.91 350.538,170.187 352.146,171.795 C353.754,173.402 355.032,175.319 355.972,177.539 C356.918,179.761 357.39,182.087 357.39,184.52 C357.39,188.262 356.333,191.657 354.226,194.705 L362.982,203.46 C363.612,204.088 363.925,204.851 363.925,205.756 Z M347.502,192.597 C349.738,190.36 350.856,187.664 350.856,184.519 C350.856,181.372 349.738,178.676 347.502,176.439 C345.265,174.203 342.569,173.085 339.421,173.085 C336.276,173.085 333.581,174.203 331.344,176.439 C329.108,178.676 327.987,181.372 327.987,184.519 C327.987,187.665 329.108,190.36 331.344,192.597 C333.581,194.833 336.277,195.954 339.421,195.954 C342.569,195.954 345.265,194.833 347.502,192.597 Z" id="Shape"></path>
            </g>
        </g>
    </g>
</svg>