<?xml version="1.0" encoding="UTF-8" standalone="no"?>
<svg width="43px" height="43px" viewBox="0 0 43 43" version="1.1" xmlns="http://www.w3.org/2000/svg" xmlns:xlink="http://www.w3.org/1999/xlink">
    <!-- Generator: Sketch 42 (36781) - http://www.bohemiancoding.com/sketch -->
    <title>Shape</title>
    <desc>Created with Sketch.</desc>
    <defs></defs>
    <g id="Page-1" stroke="none" stroke-width="1" fill="none" fill-rule="evenodd">
        <g id="Icons-font-awesome" transform="translate(-563.000000, -166.000000)" fill-rule="nonzero" fill="#04B2B2">
            <g id="Group">
                <path d="M605.968,205.684 C605.968,206.566 605.645,207.331 605,207.98 C604.352,208.627 603.586,208.948 602.704,208.948 C601.784,208.948 601.016,208.628 600.402,207.98 L591.648,199.251 C588.603,201.362 585.209,202.415 581.463,202.415 C579.032,202.415 576.706,201.943 574.484,200.997 C572.262,200.057 570.348,198.779 568.741,197.171 C567.133,195.563 565.856,193.65 564.915,191.428 C563.969,189.205 563.496,186.878 563.496,184.448 C563.496,182.014 563.969,179.688 564.915,177.467 C565.856,175.247 567.133,173.33 568.741,171.723 C570.348,170.115 572.262,168.838 574.484,167.897 C576.707,166.951 579.033,166.478 581.463,166.478 C583.897,166.478 586.224,166.951 588.445,167.897 C590.665,168.838 592.581,170.115 594.189,171.723 C595.797,173.33 597.075,175.247 598.015,177.467 C598.961,179.689 599.433,182.015 599.433,184.448 C599.433,188.19 598.376,191.585 596.269,194.633 L605.025,203.388 C605.655,204.016 605.968,204.778 605.968,205.684 Z M589.545,192.524 C591.781,190.287 592.899,187.591 592.899,184.446 C592.899,181.299 591.781,178.603 589.545,176.366 C587.308,174.13 584.612,173.012 581.464,173.012 C578.319,173.012 575.624,174.13 573.387,176.366 C571.151,178.603 570.03,181.299 570.03,184.446 C570.03,187.592 571.151,190.287 573.387,192.524 C575.624,194.76 578.32,195.881 581.464,195.881 C584.612,195.882 587.308,194.761 589.545,192.524 Z" id="Shape"></path>
            </g>
        </g>
    </g>
</svg>