<?xml version="1.0" encoding="UTF-8" standalone="no"?>
<svg width="43px" height="35px" viewBox="0 0 43 35" version="1.1" xmlns="http://www.w3.org/2000/svg" xmlns:xlink="http://www.w3.org/1999/xlink">
    <!-- Generator: Sketch 42 (36781) - http://www.bohemiancoding.com/sketch -->
    <title>Shape</title>
    <desc>Created with Sketch.</desc>
    <defs></defs>
    <g id="Page-1" stroke="none" stroke-width="1" fill="none" fill-rule="evenodd">
        <g id="Icons-font-awesome" transform="translate(-458.000000, -86.000000)" fill-rule="nonzero" fill="#04B2B2">
            <g id="Group">
                <path d="M500.859,90.25 C499.67,91.994 498.23,93.479 496.541,94.705 C496.561,94.951 496.568,95.326 496.568,95.824 C496.568,98.133 496.23,100.437 495.556,102.738 C494.878,105.041 493.851,107.248 492.476,109.361 C491.097,111.478 489.46,113.349 487.556,114.972 C485.658,116.601 483.363,117.896 480.681,118.867 C477.997,119.834 475.128,120.318 472.07,120.318 C467.257,120.318 462.848,119.031 458.851,116.451 C459.471,116.525 460.166,116.558 460.929,116.558 C464.929,116.558 468.49,115.331 471.617,112.882 C469.752,112.845 468.081,112.271 466.608,111.161 C465.13,110.05 464.118,108.634 463.568,106.911 C464.153,106.999 464.694,107.042 465.194,107.042 C465.957,107.042 466.713,106.944 467.459,106.749 C465.47,106.343 463.82,105.349 462.515,103.776 C461.208,102.204 460.555,100.381 460.555,98.299 L460.555,98.192 C461.763,98.868 463.062,99.233 464.449,99.284 C463.275,98.505 462.342,97.483 461.65,96.22 C460.957,94.96 460.609,93.593 460.609,92.115 C460.609,90.553 461.002,89.107 461.783,87.773 C463.933,90.421 466.551,92.541 469.634,94.13 C472.717,95.719 476.018,96.603 479.535,96.78 C479.392,96.108 479.322,95.45 479.322,94.805 C479.322,92.426 480.162,90.399 481.842,88.719 C483.522,87.037 485.549,86.199 487.932,86.199 C490.42,86.199 492.516,87.103 494.225,88.918 C496.161,88.545 497.983,87.85 499.688,86.838 C499.03,88.881 497.77,90.463 495.905,91.582 C497.555,91.406 499.207,90.965 500.859,90.25 Z" id="Shape"></path>
            </g>
        </g>
    </g>
</svg>