<?xml version="1.0" encoding="UTF-8" standalone="no"?>
<svg width="43px" height="35px" viewBox="0 0 43 35" version="1.1" xmlns="http://www.w3.org/2000/svg" xmlns:xlink="http://www.w3.org/1999/xlink">
    <!-- Generator: Sketch 42 (36781) - http://www.bohemiancoding.com/sketch -->
    <title>Shape</title>
    <desc>Created with Sketch.</desc>
    <defs></defs>
    <g id="Page-1" stroke="none" stroke-width="1" fill="none" fill-rule="evenodd">
        <g id="Icons-font-awesome" transform="translate(0.000000, -86.000000)" fill-rule="nonzero" fill="#000000">
            <g id="Group">
                <path d="M42.859,90.25 C41.67,91.994 40.23,93.479 38.541,94.705 C38.561,94.951 38.568,95.326 38.568,95.824 C38.568,98.133 38.23,100.437 37.556,102.738 C36.878,105.041 35.851,107.248 34.476,109.361 C33.097,111.478 31.46,113.349 29.556,114.972 C27.658,116.601 25.363,117.896 22.681,118.867 C19.997,119.834 17.128,120.318 14.07,120.318 C9.257,120.318 4.848,119.031 0.851,116.451 C1.471,116.525 2.166,116.558 2.929,116.558 C6.929,116.558 10.49,115.331 13.617,112.882 C11.752,112.845 10.081,112.271 8.608,111.161 C7.13,110.05 6.118,108.634 5.568,106.911 C6.153,106.999 6.694,107.042 7.194,107.042 C7.957,107.042 8.713,106.944 9.459,106.749 C7.47,106.343 5.82,105.349 4.515,103.776 C3.208,102.204 2.555,100.381 2.555,98.299 L2.555,98.192 C3.763,98.868 5.062,99.233 6.449,99.284 C5.275,98.505 4.342,97.483 3.65,96.22 C2.957,94.96 2.609,93.593 2.609,92.115 C2.609,90.553 3.002,89.107 3.783,87.773 C5.933,90.421 8.551,92.541 11.634,94.13 C14.717,95.719 18.018,96.603 21.535,96.78 C21.392,96.108 21.322,95.45 21.322,94.805 C21.322,92.426 22.162,90.399 23.842,88.719 C25.522,87.037 27.549,86.199 29.932,86.199 C32.42,86.199 34.516,87.103 36.225,88.918 C38.161,88.545 39.983,87.85 41.688,86.838 C41.03,88.881 39.77,90.463 37.905,91.582 C39.555,91.406 41.207,90.965 42.859,90.25 Z" id="Shape"></path>
            </g>
        </g>
    </g>
</svg>