<?xml version="1.0" encoding="UTF-8" standalone="no"?>
<svg width="43px" height="35px" viewBox="0 0 43 35" version="1.1" xmlns="http://www.w3.org/2000/svg" xmlns:xlink="http://www.w3.org/1999/xlink">
    <!-- Generator: Sketch 42 (36781) - http://www.bohemiancoding.com/sketch -->
    <title>Shape</title>
    <desc>Created with Sketch.</desc>
    <defs></defs>
    <g id="Page-1" stroke="none" stroke-width="1" fill="none" fill-rule="evenodd">
        <g id="Icons-font-awesome" transform="translate(-218.000000, -86.000000)" fill-rule="nonzero" fill="#E4687F">
            <g id="Group">
                <path d="M260.359,90.25 C259.17,91.994 257.73,93.479 256.041,94.705 C256.061,94.951 256.068,95.326 256.068,95.824 C256.068,98.133 255.73,100.437 255.056,102.738 C254.378,105.041 253.351,107.248 251.976,109.361 C250.597,111.478 248.96,113.349 247.056,114.972 C245.158,116.601 242.863,117.896 240.181,118.867 C237.497,119.834 234.628,120.318 231.57,120.318 C226.757,120.318 222.348,119.031 218.351,116.451 C218.971,116.525 219.666,116.558 220.429,116.558 C224.429,116.558 227.99,115.331 231.117,112.882 C229.252,112.845 227.581,112.271 226.108,111.161 C224.63,110.05 223.618,108.634 223.068,106.911 C223.653,106.999 224.194,107.042 224.694,107.042 C225.457,107.042 226.213,106.944 226.959,106.749 C224.97,106.343 223.32,105.349 222.015,103.776 C220.708,102.204 220.055,100.381 220.055,98.299 L220.055,98.192 C221.263,98.868 222.562,99.233 223.949,99.284 C222.775,98.505 221.842,97.483 221.15,96.22 C220.457,94.96 220.109,93.593 220.109,92.115 C220.109,90.553 220.502,89.107 221.283,87.773 C223.433,90.421 226.051,92.541 229.134,94.13 C232.217,95.719 235.518,96.603 239.035,96.78 C238.892,96.108 238.822,95.45 238.822,94.805 C238.822,92.426 239.662,90.399 241.342,88.719 C243.022,87.037 245.049,86.199 247.432,86.199 C249.92,86.199 252.016,87.103 253.725,88.918 C255.661,88.545 257.483,87.85 259.188,86.838 C258.53,88.881 257.27,90.463 255.405,91.582 C257.055,91.406 258.707,90.965 260.359,90.25 Z" id="Shape"></path>
            </g>
        </g>
    </g>
</svg>