<?xml version="1.0" encoding="UTF-8" standalone="no"?>
<svg width="44px" height="43px" viewBox="0 0 44 43" version="1.1" xmlns="http://www.w3.org/2000/svg" xmlns:xlink="http://www.w3.org/1999/xlink">
    <!-- Generator: Sketch 42 (36781) - http://www.bohemiancoding.com/sketch -->
    <title>Shape</title>
    <desc>Created with Sketch.</desc>
    <defs></defs>
    <g id="Page-1" stroke="none" stroke-width="1" fill="none" fill-rule="evenodd">
        <g id="Icons-font-awesome" transform="translate(-458.000000, -239.000000)" fill-rule="nonzero" fill="#04B2B2">
            <g id="Group">
                <path d="M501.044,247.016 L501.044,273.503 C501.044,275.692 500.269,277.563 498.711,279.116 C497.16,280.672 495.286,281.449 493.099,281.449 L466.614,281.449 C464.426,281.449 462.552,280.672 461,279.116 C459.444,277.562 458.668,275.692 458.668,273.503 L458.668,247.016 C458.668,244.828 459.444,242.956 461,241.404 C462.553,239.848 464.426,239.071 466.614,239.071 L493.099,239.071 C495.287,239.071 497.161,239.848 498.711,241.404 C500.269,242.956 501.044,244.827 501.044,247.016 Z M495.029,267.817 C495.029,264.563 494.852,262.173 494.505,260.643 C494.319,259.834 493.926,259.159 493.318,258.615 C492.711,258.076 492.011,257.759 491.221,257.667 C488.719,257.389 484.931,257.252 479.856,257.252 C474.796,257.252 471.016,257.389 468.516,257.667 C467.706,257.759 467.002,258.076 466.406,258.615 C465.808,259.159 465.417,259.835 465.233,260.643 C464.865,262.244 464.682,264.634 464.682,267.817 C464.682,271.055 464.865,273.446 465.233,274.992 C465.417,275.783 465.808,276.456 466.406,277.007 C467.003,277.559 467.697,277.88 468.487,277.973 C471.008,278.246 474.797,278.388 479.856,278.388 C484.914,278.388 488.701,278.246 491.221,277.973 C492.011,277.88 492.707,277.559 493.303,277.007 C493.902,276.456 494.292,275.783 494.478,274.992 C494.847,273.446 495.029,271.056 495.029,267.817 Z M473.345,260.784 L473.345,262.715 L471.138,262.715 L471.138,274.385 L469.096,274.385 L469.096,262.715 L466.943,262.715 L466.943,260.784 L473.345,260.784 Z M474.199,249.856 L476.682,241.694 L474.613,241.694 L473.205,247.073 L471.745,241.694 L469.593,241.694 C469.722,242.116 469.933,242.752 470.227,243.596 C470.521,244.442 470.742,245.076 470.888,245.499 C471.533,247.393 471.956,248.846 472.158,249.855 L472.158,255.404 L474.2,255.404 L474.2,249.856 L474.199,249.856 Z M478.892,264.261 L478.892,274.385 L477.042,274.385 L477.042,273.282 C476.324,274.11 475.626,274.524 474.944,274.524 C474.339,274.524 473.952,274.267 473.785,273.753 C473.677,273.439 473.62,272.94 473.62,272.26 L473.62,264.261 L475.44,264.261 L475.44,271.708 C475.44,272.151 475.45,272.388 475.467,272.425 C475.487,272.702 475.625,272.839 475.883,272.839 C476.248,272.839 476.635,272.554 477.041,271.985 L477.041,264.26 L478.892,264.26 L478.892,264.261 Z M482.174,252.094 L482.174,248.505 C482.174,247.44 481.981,246.639 481.595,246.108 C481.06,245.408 480.343,245.057 479.443,245.057 C478.505,245.057 477.787,245.408 477.291,246.108 C476.904,246.639 476.711,247.44 476.711,248.505 L476.711,252.094 C476.711,253.161 476.904,253.961 477.291,254.493 C477.787,255.191 478.506,255.542 479.443,255.542 C480.343,255.542 481.06,255.191 481.595,254.493 C481.98,253.996 482.174,253.196 482.174,252.094 Z M480.325,248.146 L480.325,252.452 C480.325,253.389 480.03,253.859 479.442,253.859 C478.852,253.859 478.558,253.388 478.558,252.452 L478.558,248.146 C478.558,247.193 478.852,246.714 479.442,246.714 C480.03,246.715 480.325,247.193 480.325,248.146 Z M485.844,267.322 L485.844,271.349 C485.844,272.308 485.777,272.979 485.651,273.366 C485.429,274.137 484.941,274.524 484.188,274.524 C483.544,274.524 482.918,274.146 482.311,273.39 L482.311,274.384 L480.462,274.384 L480.462,260.783 L482.311,260.783 L482.311,265.225 C482.901,264.489 483.526,264.119 484.188,264.119 C484.941,264.119 485.429,264.505 485.651,265.278 C485.776,265.666 485.844,266.349 485.844,267.322 Z M484.021,271.486 L484.021,267.157 C484.021,266.236 483.755,265.778 483.222,265.778 C482.909,265.778 482.605,265.926 482.311,266.22 L482.311,272.4 C482.605,272.694 482.909,272.838 483.222,272.838 C483.755,272.839 484.021,272.388 484.021,271.486 Z M487.167,255.405 L489.015,255.405 L489.015,245.193 L487.167,245.193 L487.167,253.004 C486.763,253.574 486.376,253.859 486.008,253.859 C485.733,253.859 485.584,253.711 485.566,253.418 C485.548,253.382 485.541,253.141 485.541,252.702 L485.541,245.193 L483.691,245.193 L483.691,253.28 C483.691,253.961 483.746,254.464 483.856,254.798 C484.059,255.293 484.454,255.542 485.044,255.542 C485.705,255.542 486.413,255.127 487.168,254.299 L487.168,255.405 L487.167,255.405 Z M492.768,270.879 L492.768,271.129 C492.768,271.663 492.75,272.059 492.711,272.316 C492.656,272.722 492.52,273.088 492.3,273.419 C491.801,274.155 491.065,274.525 490.093,274.525 C489.135,274.525 488.391,274.175 487.858,273.475 C487.471,272.98 487.278,272.187 487.278,271.101 L487.278,267.544 C487.278,266.457 487.462,265.666 487.829,265.171 C488.363,264.471 489.099,264.12 490.036,264.12 C490.974,264.12 491.693,264.471 492.189,265.171 C492.574,265.706 492.768,266.494 492.768,267.544 L492.768,269.64 L489.098,269.64 L489.098,271.434 C489.098,272.372 489.411,272.839 490.036,272.839 C490.478,272.839 490.755,272.602 490.866,272.123 C490.866,272.107 490.869,272.039 490.878,271.931 C490.886,271.821 490.892,271.668 490.892,271.476 L490.892,270.879 L492.768,270.879 Z M489.098,268.123 L490.919,268.123 L490.919,267.185 C490.919,266.244 490.614,265.778 490.007,265.778 C489.403,265.778 489.098,266.244 489.098,267.185 L489.098,268.123 L489.098,268.123 Z" id="Shape"></path>
            </g>
        </g>
    </g>
</svg>