<?xml version="1.0" encoding="UTF-8" standalone="no"?>
<svg width="43px" height="43px" viewBox="0 0 43 43" version="1.1" xmlns="http://www.w3.org/2000/svg" xmlns:xlink="http://www.w3.org/1999/xlink">
    <!-- Generator: Sketch 42 (36781) - http://www.bohemiancoding.com/sketch -->
    <title>Shape</title>
    <desc>Created with Sketch.</desc>
    <defs></defs>
    <g id="Page-1" stroke="none" stroke-width="1" fill="none" fill-rule="evenodd">
        <g id="Icons-font-awesome" transform="translate(-218.000000, -239.000000)" fill-rule="nonzero" fill="#E4687F">
            <g id="Group">
                <path d="M260.544,247.016 L260.544,273.503 C260.544,275.692 259.769,277.563 258.211,279.116 C256.66,280.672 254.786,281.449 252.599,281.449 L226.114,281.449 C223.926,281.449 222.052,280.672 220.5,279.116 C218.944,277.562 218.168,275.692 218.168,273.503 L218.168,247.016 C218.168,244.828 218.944,242.956 220.5,241.404 C222.053,239.848 223.926,239.071 226.114,239.071 L252.599,239.071 C254.787,239.071 256.661,239.848 258.211,241.404 C259.769,242.956 260.544,244.827 260.544,247.016 Z M254.529,267.817 C254.529,264.563 254.352,262.173 254.005,260.643 C253.819,259.834 253.426,259.159 252.818,258.615 C252.211,258.076 251.511,257.759 250.721,257.667 C248.219,257.389 244.431,257.252 239.356,257.252 C234.296,257.252 230.516,257.389 228.016,257.667 C227.206,257.759 226.502,258.076 225.906,258.615 C225.308,259.159 224.917,259.835 224.733,260.643 C224.365,262.244 224.182,264.634 224.182,267.817 C224.182,271.055 224.365,273.446 224.733,274.992 C224.917,275.783 225.308,276.456 225.906,277.007 C226.503,277.559 227.197,277.88 227.987,277.973 C230.508,278.246 234.297,278.388 239.356,278.388 C244.414,278.388 248.201,278.246 250.721,277.973 C251.511,277.88 252.207,277.559 252.803,277.007 C253.402,276.456 253.792,275.783 253.978,274.992 C254.347,273.446 254.529,271.056 254.529,267.817 Z M232.845,260.784 L232.845,262.715 L230.638,262.715 L230.638,274.385 L228.596,274.385 L228.596,262.715 L226.443,262.715 L226.443,260.784 L232.845,260.784 Z M233.699,249.856 L236.182,241.694 L234.113,241.694 L232.705,247.073 L231.245,241.694 L229.093,241.694 C229.222,242.116 229.433,242.752 229.727,243.596 C230.021,244.442 230.242,245.076 230.388,245.499 C231.033,247.393 231.456,248.846 231.658,249.855 L231.658,255.404 L233.7,255.404 L233.7,249.856 L233.699,249.856 Z M238.392,264.261 L238.392,274.385 L236.542,274.385 L236.542,273.282 C235.824,274.11 235.126,274.524 234.444,274.524 C233.839,274.524 233.452,274.267 233.285,273.753 C233.177,273.439 233.12,272.94 233.12,272.26 L233.12,264.261 L234.94,264.261 L234.94,271.708 C234.94,272.151 234.95,272.388 234.967,272.425 C234.987,272.702 235.125,272.839 235.383,272.839 C235.748,272.839 236.135,272.554 236.541,271.985 L236.541,264.26 L238.392,264.26 L238.392,264.261 Z M241.674,252.094 L241.674,248.505 C241.674,247.44 241.481,246.639 241.095,246.108 C240.56,245.408 239.843,245.057 238.943,245.057 C238.005,245.057 237.287,245.408 236.791,246.108 C236.404,246.639 236.211,247.44 236.211,248.505 L236.211,252.094 C236.211,253.161 236.404,253.961 236.791,254.493 C237.287,255.191 238.006,255.542 238.943,255.542 C239.843,255.542 240.56,255.191 241.095,254.493 C241.48,253.996 241.674,253.196 241.674,252.094 Z M239.825,248.146 L239.825,252.452 C239.825,253.389 239.53,253.859 238.942,253.859 C238.352,253.859 238.058,253.388 238.058,252.452 L238.058,248.146 C238.058,247.193 238.352,246.714 238.942,246.714 C239.53,246.715 239.825,247.193 239.825,248.146 Z M245.344,267.322 L245.344,271.349 C245.344,272.308 245.277,272.979 245.151,273.366 C244.929,274.137 244.441,274.524 243.688,274.524 C243.044,274.524 242.418,274.146 241.811,273.39 L241.811,274.384 L239.962,274.384 L239.962,260.783 L241.811,260.783 L241.811,265.225 C242.401,264.489 243.026,264.119 243.688,264.119 C244.441,264.119 244.929,264.505 245.151,265.278 C245.276,265.666 245.344,266.349 245.344,267.322 Z M243.521,271.486 L243.521,267.157 C243.521,266.236 243.255,265.778 242.722,265.778 C242.409,265.778 242.105,265.926 241.811,266.22 L241.811,272.4 C242.105,272.694 242.409,272.838 242.722,272.838 C243.255,272.839 243.521,272.388 243.521,271.486 Z M246.667,255.405 L248.515,255.405 L248.515,245.193 L246.667,245.193 L246.667,253.004 C246.263,253.574 245.876,253.859 245.508,253.859 C245.233,253.859 245.084,253.711 245.066,253.418 C245.048,253.382 245.041,253.141 245.041,252.702 L245.041,245.193 L243.191,245.193 L243.191,253.28 C243.191,253.961 243.246,254.464 243.356,254.798 C243.559,255.293 243.954,255.542 244.544,255.542 C245.205,255.542 245.913,255.127 246.668,254.299 L246.668,255.405 L246.667,255.405 Z M252.268,270.879 L252.268,271.129 C252.268,271.663 252.25,272.059 252.211,272.316 C252.156,272.722 252.02,273.088 251.8,273.419 C251.301,274.155 250.565,274.525 249.593,274.525 C248.635,274.525 247.891,274.175 247.358,273.475 C246.971,272.98 246.778,272.187 246.778,271.101 L246.778,267.544 C246.778,266.457 246.962,265.666 247.329,265.171 C247.863,264.471 248.599,264.12 249.536,264.12 C250.474,264.12 251.193,264.471 251.689,265.171 C252.074,265.706 252.268,266.494 252.268,267.544 L252.268,269.64 L248.598,269.64 L248.598,271.434 C248.598,272.372 248.911,272.839 249.536,272.839 C249.978,272.839 250.255,272.602 250.366,272.123 C250.366,272.107 250.369,272.039 250.378,271.931 C250.386,271.821 250.392,271.668 250.392,271.476 L250.392,270.879 L252.268,270.879 Z M248.598,268.123 L250.419,268.123 L250.419,267.185 C250.419,266.244 250.114,265.778 249.507,265.778 C248.903,265.778 248.598,266.244 248.598,267.185 L248.598,268.123 Z" id="Shape"></path>
            </g>
        </g>
    </g>
</svg>