<?xml version="1.0" encoding="UTF-8" standalone="no"?>
<svg width="43px" height="43px" viewBox="0 0 43 43" version="1.1" xmlns="http://www.w3.org/2000/svg" xmlns:xlink="http://www.w3.org/1999/xlink">
    <!-- Generator: Sketch 42 (36781) - http://www.bohemiancoding.com/sketch -->
    <title>Shape</title>
    <desc>Created with Sketch.</desc>
    <defs></defs>
    <g id="Page-1" stroke="none" stroke-width="1" fill="none" fill-rule="evenodd">
        <g id="Icons-font-awesome" transform="translate(0.000000, -239.000000)" fill-rule="nonzero" fill="#000000">
            <g id="Group">
                <path d="M42.973,246.945 L42.973,273.432 C42.973,275.621 42.198,277.492 40.64,279.045 C39.089,280.601 37.215,281.378 35.028,281.378 L8.543,281.378 C6.355,281.378 4.481,280.601 2.929,279.045 C1.373,277.491 0.597,275.621 0.597,273.432 L0.597,246.945 C0.597,244.757 1.373,242.885 2.929,241.333 C4.48,239.777 6.354,239 8.542,239 L35.027,239 C37.215,239 39.089,239.777 40.639,241.333 C42.197,242.886 42.973,244.757 42.973,246.945 Z M36.958,267.747 C36.958,264.493 36.781,262.103 36.434,260.573 C36.248,259.764 35.855,259.089 35.247,258.545 C34.64,258.006 33.94,257.689 33.15,257.597 C30.648,257.319 26.86,257.182 21.785,257.182 C16.725,257.182 12.945,257.319 10.445,257.597 C9.635,257.689 8.931,258.006 8.335,258.545 C7.737,259.089 7.346,259.765 7.162,260.573 C6.794,262.174 6.611,264.564 6.611,267.747 C6.611,270.985 6.794,273.376 7.162,274.922 C7.346,275.713 7.737,276.386 8.335,276.937 C8.932,277.489 9.626,277.81 10.416,277.903 C12.937,278.176 16.726,278.318 21.785,278.318 C26.843,278.318 30.63,278.176 33.15,277.903 C33.94,277.81 34.636,277.489 35.232,276.937 C35.831,276.386 36.221,275.713 36.407,274.922 C36.775,273.376 36.958,270.985 36.958,267.747 Z M15.273,260.714 L15.273,262.645 L13.066,262.645 L13.066,274.315 L11.024,274.315 L11.024,262.645 L8.871,262.645 L8.871,260.714 L15.273,260.714 Z M16.128,249.786 L18.611,241.624 L16.542,241.624 L15.134,247.003 L13.674,241.624 L11.522,241.624 C11.651,242.046 11.862,242.682 12.156,243.526 C12.45,244.372 12.671,245.006 12.817,245.429 C13.462,247.323 13.885,248.776 14.087,249.785 L14.087,255.334 L16.129,255.334 L16.129,249.786 L16.128,249.786 Z M20.82,264.19 L20.82,274.314 L18.97,274.314 L18.97,273.211 C18.252,274.039 17.554,274.453 16.872,274.453 C16.267,274.453 15.88,274.196 15.713,273.682 C15.605,273.368 15.548,272.869 15.548,272.189 L15.548,264.19 L17.368,264.19 L17.368,271.637 C17.368,272.08 17.378,272.317 17.395,272.354 C17.415,272.631 17.553,272.768 17.811,272.768 C18.176,272.768 18.563,272.483 18.969,271.914 L18.969,264.189 L20.82,264.189 L20.82,264.19 Z M24.103,252.023 L24.103,248.434 C24.103,247.369 23.91,246.568 23.524,246.037 C22.989,245.337 22.272,244.986 21.372,244.986 C20.434,244.986 19.716,245.337 19.22,246.037 C18.833,246.568 18.64,247.369 18.64,248.434 L18.64,252.023 C18.64,253.09 18.833,253.89 19.22,254.422 C19.716,255.12 20.435,255.471 21.372,255.471 C22.272,255.471 22.989,255.12 23.524,254.422 C23.909,253.926 24.103,253.126 24.103,252.023 Z M22.254,248.076 L22.254,252.382 C22.254,253.319 21.959,253.789 21.371,253.789 C20.781,253.789 20.487,253.318 20.487,252.382 L20.487,248.076 C20.487,247.123 20.781,246.644 21.371,246.644 C21.959,246.645 22.254,247.123 22.254,248.076 Z M27.772,267.252 L27.772,271.279 C27.772,272.238 27.705,272.909 27.579,273.296 C27.357,274.067 26.869,274.454 26.116,274.454 C25.472,274.454 24.846,274.076 24.239,273.32 L24.239,274.314 L22.39,274.314 L22.39,260.713 L24.239,260.713 L24.239,265.155 C24.829,264.419 25.454,264.049 26.116,264.049 C26.869,264.049 27.357,264.435 27.579,265.208 C27.705,265.596 27.772,266.278 27.772,267.252 Z M25.949,271.416 L25.949,267.087 C25.949,266.166 25.683,265.708 25.15,265.708 C24.837,265.708 24.533,265.856 24.239,266.15 L24.239,272.33 C24.533,272.624 24.837,272.768 25.15,272.768 C25.684,272.769 25.949,272.317 25.949,271.416 Z M29.096,255.335 L30.944,255.335 L30.944,245.123 L29.096,245.123 L29.096,252.934 C28.692,253.504 28.305,253.789 27.937,253.789 C27.662,253.789 27.513,253.641 27.495,253.348 C27.477,253.312 27.47,253.071 27.47,252.632 L27.47,245.123 L25.62,245.123 L25.62,253.21 C25.62,253.891 25.675,254.394 25.785,254.728 C25.988,255.223 26.383,255.472 26.973,255.472 C27.634,255.472 28.342,255.057 29.097,254.229 L29.097,255.335 L29.096,255.335 Z M34.696,270.809 L34.696,271.059 C34.696,271.593 34.678,271.989 34.639,272.246 C34.584,272.652 34.448,273.018 34.228,273.349 C33.729,274.085 32.993,274.455 32.021,274.455 C31.063,274.455 30.319,274.105 29.786,273.405 C29.399,272.91 29.206,272.117 29.206,271.031 L29.206,267.474 C29.206,266.387 29.39,265.596 29.757,265.101 C30.291,264.401 31.027,264.05 31.964,264.05 C32.902,264.05 33.621,264.401 34.117,265.101 C34.502,265.636 34.696,266.424 34.696,267.474 L34.696,269.57 L31.026,269.57 L31.026,271.364 C31.026,272.302 31.339,272.769 31.964,272.769 C32.406,272.769 32.683,272.532 32.794,272.053 C32.794,272.037 32.797,271.969 32.806,271.861 C32.814,271.751 32.82,271.598 32.82,271.406 L32.82,270.809 L34.696,270.809 L34.696,270.809 Z M31.026,268.053 L32.847,268.053 L32.847,267.115 C32.847,266.174 32.542,265.708 31.935,265.708 C31.331,265.708 31.026,266.174 31.026,267.115 L31.026,268.053 Z" id="Shape"></path>
            </g>
        </g>
    </g>
</svg>